<svg xmlns="http://www.w3.org/2000/svg" width="22" height="22" viewBox="0 0 22 22">
    <g fill="#4A4A4A" fill-rule="evenodd">
        <path d="M13.233 0C8.743 0 5.09 3.653 5.09 8.142c0 1.566.444 3.03 1.213 4.272L0 18.718l2.657 2.657 6.304-6.304a8.093 8.093 0 0 0 4.272 1.213c4.49 0 8.142-3.652 8.142-8.142 0-4.49-3.653-8.142-8.142-8.142zM1.772 18.718l.885-.886.886.886-.886.885-.885-.885zm2.657-.886l-.886-.886 3.51-3.509c.271.317.568.614.885.886l-3.51 3.509zm8.804-2.8c-3.8 0-6.89-3.09-6.89-6.89 0-3.799 3.09-6.89 6.89-6.89 3.799 0 6.89 3.091 6.89 6.89 0 3.8-3.091 6.89-6.89 6.89z"/>
        <path d="M17.572 7.516a4.363 4.363 0 0 0-.83-1.998l.92-.919-.886-.886-.919.92a4.363 4.363 0 0 0-1.998-.83V2.505h-1.253v1.298c-.741.106-1.424.399-1.998.83l-.918-.92-.886.886.919.919a4.363 4.363 0 0 0-.83 1.998H7.596v1.253h1.297c.107.741.4 1.424.83 1.998l-.919.918.886.886.918-.919c.574.43 1.257.723 1.998.83v1.297h1.253v-1.297a4.363 4.363 0 0 0 1.998-.83l.919.919.886-.886-.92-.918c.431-.574.724-1.257.83-1.998h1.298V7.516h-1.298zm-4.34 3.758a3.135 3.135 0 0 1-3.13-3.132 3.135 3.135 0 0 1 3.13-3.131 3.135 3.135 0 0 1 3.132 3.131 3.135 3.135 0 0 1-3.131 3.132z"/>
        <path d="M11.094 6.89l.886-.886.886.886-.886.885zM13.233 10.28l-.886-.885.886-.886.886.886zM14.485 7.776L13.6 6.89l.885-.886.886.886z"/>
    </g>
</svg>
