<svg xmlns="http://www.w3.org/2000/svg" xmlns:xlink="http://www.w3.org/1999/xlink" width="29" height="24" viewBox="0 0 29 24">
    <defs>
        <path id="a" d="M0 0h29v23.593H0z"/>
    </defs>
    <g fill="none" fill-rule="evenodd">
        <mask id="b" fill="#fff">
            <use xlink:href="#a"/>
        </mask>
        <path fill="#CB5251" d="M.906 19.964h10.875c.501 0 .906-.305.906-.681v-1.361c0-.376-.405-.68-.906-.68H.906c-.5 0-.906.304-.906.68v1.36c0 .377.405.682.906.682zm0 3.63h10.875c.501 0 .906-.306.906-.681V21.55c0-.375-.405-.68-.906-.68H.906c-.5 0-.906.305-.906.68v1.362c0 .375.405.68.906.68zm0-7.26h10.875c.501 0 .906-.305.906-.68v-1.362c0-.376-.405-.68-.906-.68H.906c-.5 0-.906.304-.906.68v1.361c0 .376.405.68.906.68zm13.554-.362c.014-.106.04-.21.04-.319v-1.36c0-1.401-1.194-2.497-2.719-2.497H8.156a4.534 4.534 0 0 1 4.531-4.537 4.534 4.534 0 0 1 4.532 4.537 4.538 4.538 0 0 1-2.759 4.176zM0 3.63h25.375v16.334H14.392c.065-.217.108-.444.108-.681v-1.134h5.438a3.627 3.627 0 0 1 3.624-3.63V9.074a3.627 3.627 0 0 1-3.624-3.63h-14.5a3.628 3.628 0 0 1-3.625 3.63v2.722H.906c-.321 0-.622.06-.906.148V3.63zM29 0v18.149h-1.813V1.815H1.813V0H29z" mask="url(#b)"/>
    </g>
</svg>
