<?xml version="1.0" encoding="UTF-8"?>
<svg width="32px" height="32px" viewBox="0 0 32 32" version="1.1" xmlns="http://www.w3.org/2000/svg" xmlns:xlink="http://www.w3.org/1999/xlink">
    <!-- Generator: Sketch 49.1 (51147) - http://www.bohemiancoding.com/sketch -->
    <title>Group 14</title>
    <desc>Created with Sketch.</desc>
    <defs>
        <polygon id="path-1" points="0 0 15 0 15 16.6666667 0 16.6666667"></polygon>
    </defs>
    <g id="Page-1" stroke="none" stroke-width="1" fill="none" fill-rule="evenodd">
        <g id="Library" transform="translate(-736.000000, -115.000000)">
            <g id="Group-14" transform="translate(736.000000, 115.000000)">
                <g id="Group-9-Copy-3" fill="#38A791">
                    <g id="Group-2">
                        <circle id="Oval" cx="16" cy="16" r="16"></circle>
                    </g>
                </g>
                <g id="writing" transform="translate(9.000000, 8.000000)">
                    <mask id="mask-2" fill="white">
                        <use xlink:href="#path-1"></use>
                    </mask>
                    <g id="Clip-2"></g>
                    <path d="M13.5018523,10.3469401 C13.2469381,10.093099 12.8321714,10.093099 12.5772573,10.3469401 L12.4510097,10.4723958 L13.3756374,11.3931315 L13.5023099,11.2672526 C13.7567664,11.0138021 13.7567664,10.6007813 13.5018523,10.3469401 Z M12.4501271,12.3129557 L11.525336,11.3920573 L9.10339011,13.7984701 L8.71487323,15.0722005 L10.0424666,14.7059896 L12.4501271,12.3129557 Z M14.4264473,12.1883464 L10.8445407,15.7484701 C10.7647778,15.8277669 10.6657935,15.8851562 10.5571984,15.9151042 L7.91832374,16.6430013 C7.86069183,16.6589193 7.80198116,16.6666667 7.74382621,16.6666667 C7.57001517,16.6666667 7.40055186,16.5975586 7.27580803,16.4702474 C7.10928678,16.300293 7.04890894,16.0535807 7.11821107,15.8263672 L7.89991945,13.2637044 C7.93123616,13.1611003 7.98746242,13.067806 8.06369476,12.9920573 L11.65312,9.42565104 C12.4173721,8.66461589 13.6616721,8.66464844 14.4264146,9.42617187 C15.1911897,10.1877604 15.1911897,11.4268229 14.4264473,12.1883464 Z M3.2653397,9.11458333 C2.90424947,9.11458333 2.61154605,9.40605469 2.61154605,9.765625 C2.61154605,10.1251953 2.90424947,10.4166667 3.2653397,10.4166667 L7.35517858,10.4166667 C7.71626881,10.4166667 8.00897223,10.1251953 8.00897223,9.765625 C8.00897223,9.40605469 7.71626881,9.11458333 7.35517858,9.11458333 L3.2653397,9.11458333 Z M10.653208,7.16145833 C10.653208,6.80188802 10.3605045,6.51041667 9.99941431,6.51041667 L3.2653397,6.51041667 C2.90424947,6.51041667 2.61154605,6.80188802 2.61154605,7.16145833 C2.61154605,7.52102865 2.90424947,7.8125 3.2653397,7.8125 L9.99941431,7.8125 C10.3605045,7.8125 10.653208,7.52102865 10.653208,7.16145833 Z M9.99941431,3.90625 L3.2653397,3.90625 C2.90424947,3.90625 2.61154605,4.19772135 2.61154605,4.55729167 C2.61154605,4.91686198 2.90424947,5.20833333 3.2653397,5.20833333 L9.99941431,5.20833333 C10.3605045,5.20833333 10.653208,4.91686198 10.653208,4.55729167 C10.653208,4.19772135 10.3605045,3.90625 9.99941431,3.90625 Z M5.45554843,16.015625 C5.45554843,16.3751953 5.16284502,16.6666667 4.80175478,16.6666667 L2.61517461,16.6666667 C1.17316733,16.6666667 0,15.4984375 0,14.0625 L0,2.60416667 C0,1.16822917 1.17316733,0 2.61517461,0 L10.653208,0 C12.0952152,0 13.2683826,1.16822917 13.2683826,2.60416667 L13.2683826,6.60807292 C13.2683826,6.96764323 12.9756791,7.25911458 12.6145889,7.25911458 C12.2534987,7.25911458 11.9607953,6.96764323 11.9607953,6.60807292 L11.9607953,2.60416667 C11.9607953,1.88619792 11.3742116,1.30208333 10.653208,1.30208333 L2.61517461,1.30208333 C1.89417097,1.30208333 1.3075873,1.88619792 1.3075873,2.60416667 L1.3075873,14.0625 C1.3075873,14.7804687 1.89417097,15.3645833 2.61517461,15.3645833 L4.80175478,15.3645833 C5.16284502,15.3645833 5.45554843,15.6560547 5.45554843,16.015625 Z" id="Fill-1" fill="#FFFFFF" mask="url(#mask-2)"></path>
                </g>
            </g>
        </g>
    </g>
</svg>