<svg xmlns="http://www.w3.org/2000/svg" width="23" height="23" viewBox="0 0 23 23">
    <g fill="#4A4A4A" fill-rule="evenodd">
        <path d="M11.5 2.366a9.051 9.051 0 1 0 0 18.102 9.051 9.051 0 0 0 0-18.102zm0 16.38a7.33 7.33 0 1 1 0-14.659 7.33 7.33 0 0 1 0 14.66z"/>
        <path d="M11.72 4.09a7.328 7.328 0 0 1 6.16 3.718c.06.105.192.146.3.09l2.947-1.554a.223.223 0 0 0 .093-.304A11.103 11.103 0 0 0 11.725.314a.222.222 0 0 0-.225.222v3.332c0 .122.098.22.22.223zM8.402 14.764c0 .128.105.233.234.233h5.728a.233.233 0 0 0 .233-.233v-1.326H8.402v1.326zM22.112 7.165a.324.324 0 1 0-.602.241 10.789 10.789 0 0 1-4.544 13.306l-1.504-2.745a7.66 7.66 0 0 0 3.226-9.185.325.325 0 0 0-.609.224 7.011 7.011 0 0 1-3.21 8.555.324.324 0 0 0-.129.44l1.816 3.312a.325.325 0 0 0 .44.128 11.437 11.437 0 0 0 5.933-10.024c0-1.47-.274-2.9-.817-4.252z"/>
        <path d="M15.86 21.282a10.67 10.67 0 0 1-4.36.916c-5.945 0-10.781-4.836-10.781-10.78C.719 5.797 4.934 1.18 10.524.68a.324.324 0 1 0-.058-.647 11.395 11.395 0 0 0-7.384 3.652A11.396 11.396 0 0 0 .07 11.417c0 6.303 5.127 11.43 11.43 11.43 1.616 0 3.17-.327 4.623-.972a.325.325 0 0 0-.263-.593z"/>
        <path d="M10.457 3.834c-3.769.513-6.611 3.774-6.611 7.584 0 4.22 3.434 7.653 7.654 7.653.954 0 1.885-.173 2.767-.515a.325.325 0 0 0-.235-.605 6.973 6.973 0 0 1-2.532.472c-3.863 0-7.005-3.143-7.005-7.005 0-3.487 2.6-6.472 6.05-6.942a.324.324 0 1 0-.088-.642z"/>
        <path d="M9.423 8.71c0 .471.157.915.433 1.272a2.182 2.182 0 0 0-1.778 2.142v2.64c0 .307.25.557.558.557h5.728c.308 0 .558-.25.558-.557v-2.64A2.182 2.182 0 0 0 13.14 9.98c.292-.378.452-.854.435-1.348a2.087 2.087 0 0 0-1.978-1.997 2.06 2.06 0 0 0-1.532.572c-.415.396-.643.93-.643 1.502zm1.09-1.032c.286-.272.66-.413 1.055-.394a1.435 1.435 0 0 1 1.36 1.373 1.437 1.437 0 0 1-.775 1.324.324.324 0 0 0 .148.612h.442c.844 0 1.53.687 1.53 1.53v2.55H8.727v-2.55c0-.843.686-1.53 1.53-1.53h.441a.324.324 0 0 0 .15-.612 1.424 1.424 0 0 1-.776-1.27c0-.394.157-.761.442-1.033z"/>
    </g>
</svg>
