<svg xmlns="http://www.w3.org/2000/svg" xmlns:xlink="http://www.w3.org/1999/xlink" width="20" height="20" viewBox="0 0 20 20">
    <defs>
        <path id="a" d="M.003 0H20v20H.003z"/>
    </defs>
    <g fill="none" fill-rule="evenodd">
        <mask id="b" fill="#fff">
            <use xlink:href="#a"/>
        </mask>
        <path fill="#4A4A4A" d="M19.58 1.425A2.988 2.988 0 0 0 17.004 0a.83.83 0 0 0 0 1.657c.486 0 .918.237 1.16.629.215.35.232.763.056 1.13l-2.685 4.38c-.013.016-.02.037-.033.053-.224.44-.673.706-1.196.706h-.008c-.519 0-.963-.261-1.196-.694a.395.395 0 0 0-.033-.053l-2.75-4.375a1.168 1.168 0 0 1 .044-1.14c.241-.4.674-.636 1.164-.636A.83.83 0 0 0 11.53 0C10.453 0 9.49.539 8.947 1.44a2.817 2.817 0 0 0-.078 2.793c.009.016.02.036.033.053l2.755 4.387a2.945 2.945 0 0 0 1.804 1.433v5.825c0 .559-.812 1.183-1.975 1.183-1.164 0-1.976-.624-1.976-1.183V9.274c0-1.596-1.596-2.845-3.636-2.845-2.041 0-3.637 1.249-3.637 2.845v4.873C.943 14.507 0 15.657 0 17.017 0 18.66 1.38 20 3.073 20c1.694 0 3.074-1.339 3.074-2.984 0-1.371-.96-2.53-2.265-2.877V9.274c0-.56.812-1.184 1.975-1.184 1.164 0 1.976.624 1.976 1.184v6.702c0 .02 0 .044.004.065.073 1.539 1.645 2.73 3.632 2.73 2.041 0 3.637-1.248 3.637-2.844v-5.813a2.975 2.975 0 0 0 1.85-1.47l2.689-4.383c.012-.016.02-.036.033-.053a2.812 2.812 0 0 0-.098-2.783zM4.49 17.016c0 .73-.637 1.323-1.417 1.323s-1.416-.596-1.416-1.323c0-.73.637-1.322 1.416-1.322.784 0 1.417.592 1.417 1.322z" mask="url(#b)"/>
    </g>
</svg>
