<?xml version="1.0" encoding="UTF-8"?>
<svg width="32px" height="32px" viewBox="0 0 32 32" version="1.1" xmlns="http://www.w3.org/2000/svg" xmlns:xlink="http://www.w3.org/1999/xlink">
    <!-- Generator: Sketch 49.1 (51147) - http://www.bohemiancoding.com/sketch -->
    <title>Group</title>
    <desc>Created with Sketch.</desc>
    <defs></defs>
    <g id="Page-1" stroke="none" stroke-width="1" fill="none" fill-rule="evenodd">
        <g id="2)-Bulk-Appointment" transform="translate(-1377.000000, -401.000000)">
            <g id="Group" transform="translate(1377.000000, 401.000000)">
                <circle id="Oval" fill="#3BA8DF" cx="16" cy="16" r="16"></circle>
                <g id="Group-2" transform="translate(6.000000, 9.000000)" fill="#FFFFFF">
                    <path d="M0.00906066351,9.60415735 C0.169420853,9.43639431 0.266387678,9.22942749 0.567923223,9.20117156 C1.04952512,9.15592038 1.43770521,8.62833744 1.47492796,8.082091 C1.51246351,7.53021422 1.19747773,6.98980664 0.673022749,6.89586351 C0.112700474,6.79556019 0.0710985782,6.49527583 0.167648341,6.04265972 C0.288804739,5.47535166 0.517875829,4.95704834 0.800747867,4.45511469 C0.958397156,4.17516209 1.13429289,4.11312417 1.43812227,4.25242275 C2.14118389,4.57470711 2.6818,4.51871659 3.04672891,4.0804891 C3.47901327,3.56156019 3.47129763,3.00780664 3.09270995,2.45207204 C2.92338294,2.20350332 3.05694692,2.02771185 3.2538,1.87944645 C3.80035924,1.46780664 4.40822654,1.16919052 5.05925972,0.972963033 C5.41125972,0.866820853 5.69016967,0.937408531 5.7892218,1.38960758 C5.93175261,2.04095355 6.47862464,2.41870711 7.1701128,2.41464076 C7.66714597,2.41182559 7.99068152,2.10997725 8.18524076,1.46728531 C8.32474787,1.00716209 8.55507014,0.879854028 9.00007488,1.05919052 C9.49856777,1.26010995 9.98507014,1.49084929 10.4778284,1.70636588 C10.8400464,1.86484929 10.9225204,2.10059336 10.7245204,2.45457441 C10.3875346,3.05712417 10.4341412,3.7833327 10.813146,4.14158863 C11.2121697,4.51892512 11.786255,4.53425213 12.4362455,4.17589194 C12.738928,4.00896303 12.9825962,4.00948436 13.1870607,4.33750332 C13.3547194,4.60661232 13.5414588,4.7983564 13.1890417,5.11584455 C12.3770227,5.84737062 11.6115062,6.63113365 10.8383782,7.4048872 C10.6106626,7.63270711 10.5050417,7.66002464 10.4232976,7.29978768 C10.3586531,7.01524739 10.2408332,6.73883981 10.1173829,6.47223318 C9.430691,4.98989194 8.19379052,4.24543697 6.71874787,4.41486825 C5.08616019,4.60254597 3.8806436,5.69962654 3.5618,7.28800569 C3.1847763,9.16645118 3.91536398,10.4979204 5.80162938,11.3579014 C6.06594218,11.4784322 6.34109858,11.5752948 6.63001801,11.6907166 C5.83311754,12.5193137 5.63344929,13.5630104 5.44441611,14.5978445 C5.370909,15.0007261 5.23390427,15.113437 4.86647299,14.9546408 C4.56462464,14.8242047 4.24713649,14.7233801 3.9601981,14.5662521 C3.27413175,14.1906882 3.24160095,14.0839204 3.3445109,13.2997403 C3.41541137,12.7596455 3.34086161,12.2490578 2.86874787,11.8935128 C2.41717441,11.5532948 1.95027393,11.6419204 1.50641611,11.9133232 C1.21530711,12.0913043 1.04441611,11.9110294 0.884472986,11.7307545 C0.602539336,11.4133706 0.471686256,11.0139299 0.323733649,10.6235602 C0.220927962,10.3526787 0.219989573,10.0412379 0.00906066351,9.81268815 L0.00906066351,9.60415735 Z" id="Fill-4"></path>
                    <path d="M21.9047953,2.72264076 C21.55071,2.9503564 21.3036009,3.29099147 21.0096768,3.58147488 C20.8355536,3.7535128 20.7398379,3.80752227 20.6038758,3.53810047 C20.1232123,2.58605308 19.4006531,1.8476455 18.4959422,1.29545592 C18.2442455,1.14166445 18.2860559,1.03812891 18.4580938,0.878707109 C18.5338948,0.808432227 18.5967668,0.724081517 18.6645393,0.645152607 C19.344037,-0.147055924 19.3446626,-0.148098578 20.1961981,0.438290047 C20.7919706,0.848470142 21.2510512,1.38137062 21.6146246,2.00446066 C21.6972028,2.14615735 21.7123213,2.34436588 21.9047953,2.40984455 L21.9047953,2.72264076 Z" id="Fill-6"></path>
                    <path d="M20.4236009,4.23892038 C20.344672,4.33015261 20.2711649,4.42545118 20.187127,4.51042749 C16.7951649,7.9414891 13.398928,11.3682758 10.0155156,14.8077829 C9.7214872,15.1067118 9.61117441,15.0163137 9.41870047,14.7210341 C8.88392322,13.9000483 8.23799905,13.1723801 7.39480474,12.6554322 C7.10161043,12.4756787 7.09598009,12.3747498 7.33568626,12.134418 C8.52441611,10.9425602 9.69416967,9.73183033 10.8722645,8.52933744 C13.0703877,6.28533744 15.2762265,4.04884455 17.4603782,1.79129005 C17.7565962,1.48516682 17.9565773,1.48944171 18.2825109,1.71736588 C19.1252882,2.30667393 19.7833071,3.05008626 20.2777336,3.94551754 C20.327781,4.03622844 20.3702171,4.13100569 20.4236009,4.23892038" id="Fill-8"></path>
                    <path d="M9.31358009,15.3423204 C9.33787393,15.5011166 9.22558009,15.5179033 9.12757062,15.5483488 C8.59873649,15.7125668 8.07230047,15.8853346 7.54002559,16.0376664 C7.25194028,16.120036 6.11899242,14.9815621 6.19687867,14.6927469 C6.34107773,14.1581782 6.50998768,13.6301782 6.64709668,13.0940455 C6.71278389,12.8370313 6.8052673,12.7900076 7.03892607,12.926491 C7.97449953,13.473363 8.71165592,14.2084341 9.22151374,15.167363 C9.25394028,15.2283583 9.2858455,15.2895621 9.31358009,15.3423204" id="Fill-10"></path>
                    <path d="M5.83398294,16.1793943 C5.94940474,15.9213374 5.74869384,15.4947877 6.12498768,15.3402664 C6.30901611,15.2647782 6.95952796,15.9499062 6.87747109,16.1025507 C6.69531943,16.4415175 6.2933763,16.3818777 5.98412512,16.4759251 C5.73847583,16.5506834 5.83617251,16.3303706 5.83398294,16.1793943" id="Fill-12"></path>
                </g>
            </g>
        </g>
    </g>
</svg>