<svg xmlns="http://www.w3.org/2000/svg" xmlns:xlink="http://www.w3.org/1999/xlink" width="32" height="32" viewBox="0 0 32 32">
    <defs>
        <path id="a" d="M0 0h15v16.667H0z"/>
    </defs>
    <g fill="none" fill-rule="evenodd">
        <circle cx="16" cy="16" r="16" fill="#38A791"/>
        <g transform="translate(9 8)">
            <mask id="b" fill="#fff">
                <use xlink:href="#a"/>
            </mask>
            <path fill="#FFF" d="M13.502 10.347a.656.656 0 0 0-.925 0l-.126.125.925.921.126-.126a.65.65 0 0 0 0-.92zm-1.052 1.966l-.925-.92-2.422 2.405-.388 1.274 1.327-.366 2.408-2.393zm1.976-.125l-3.581 3.56a.654.654 0 0 1-.288.167l-2.639.728a.655.655 0 0 1-.642-.173.65.65 0 0 1-.158-.644l.782-2.562a.65.65 0 0 1 .164-.272l3.59-3.566a1.97 1.97 0 0 1 2.772 0c.765.762.765 2 0 2.762zM3.266 9.115a.652.652 0 0 0-.654.65c0 .36.292.652.653.652h4.09a.652.652 0 0 0 .654-.651.652.652 0 0 0-.654-.651h-4.09zm7.387-1.954a.652.652 0 0 0-.654-.65H3.265a.652.652 0 0 0-.653.65c0 .36.292.652.653.652H10a.652.652 0 0 0 .654-.652zM10 3.906H3.265a.652.652 0 0 0-.653.651c0 .36.292.651.653.651H10a.652.652 0 0 0 .654-.65.652.652 0 0 0-.654-.652zm-4.543 12.11c0 .36-.293.65-.654.65H2.615A2.613 2.613 0 0 1 0 14.063V2.604A2.613 2.613 0 0 1 2.615 0h8.038a2.613 2.613 0 0 1 2.615 2.604v4.004a.652.652 0 1 1-1.308 0V2.604c0-.718-.586-1.302-1.307-1.302H2.615c-.72 0-1.307.584-1.307 1.302v11.459c0 .717.586 1.302 1.307 1.302h2.187c.36 0 .654.291.654.65z" mask="url(#b)"/>
        </g>
    </g>
</svg>
