<?xml version="1.0" encoding="UTF-8"?>
<svg width="32px" height="32px" viewBox="0 0 32 32" fill="#38A791" version="1.1" xmlns="http://www.w3.org/2000/svg" xmlns:xlink="http://www.w3.org/1999/xlink">
    <!-- Generator: Sketch 49.1 (51147) - http://www.bohemiancoding.com/sketch -->
    <title>Group 6 Copy</title>
    <desc>Created with Sketch.</desc>
    <defs>
        <polygon id="path-1" points="0.00234375 0 20 0 20 12.578125 0.00234375 12.578125"></polygon>
    </defs>
    <g id="Page-1" stroke="none" stroke-width="1" fill="none" fill-rule="evenodd" opacity="0.5">
        <g id="1)-History---Table" transform="translate(-1193.000000, -282.000000)">
            <g id="Group-6-Copy" transform="translate(1193.000000, 282.000000)">
                <g id="Group-2" fill="#343C49">
                    <circle id="Oval" cx="16" cy="16" r="16"></circle>
                </g>
                <g id="profits" transform="translate(6.000000, 6.000000)">
                    <g id="Group-3" transform="translate(0.000000, 5.804688)">
                        <mask id="mask-2" fill="white">
                            <use xlink:href="#path-1"></use>
                        </mask>
                        <g id="Clip-2"></g>
                        <path d="M11.328125,11.796875 L13.671875,11.796875 L13.671875,3.359375 L11.328125,3.359375 L11.328125,11.796875 Z M6.328125,11.796875 L8.671875,11.796875 L8.671875,5.78125 L6.328125,5.78125 L6.328125,11.796875 Z M1.484375,11.796875 L3.828125,11.796875 L3.828125,8.28125 L1.484375,8.28125 L1.484375,11.796875 Z M19.296875,11.796875 L19.296875,0.390625 C19.296875,0.174882812 19.1219922,0 18.90625,0 L15.78125,0 C15.5655078,0 15.390625,0.174882812 15.390625,0.390625 C15.390625,0.0583960084 15.390625,1.45162518 15.390625,4.5703125 C15.390625,7.68899982 15.390625,8.96484618 15.390625,8.39785156 L16.171875,8.39785156 L16.171875,0.78125 L18.515625,0.78125 L18.515625,11.796875 L16.171875,11.796875 L16.171875,8.39785156 C16.171875,8.32650939 16.0416667,8.32650939 15.78125,8.39785156 C15.5208333,8.32536561 15.390625,8.32536561 15.390625,8.39785156 L15.390625,11.796875 L14.453125,11.796875 L14.453125,2.96875 C14.453125,2.75300781 14.2782422,2.578125 14.0625,2.578125 L10.9375,2.578125 C10.7217578,2.578125 10.546875,2.75300781 10.546875,2.96875 L10.546875,11.796875 L9.453125,11.796875 L9.453125,5.390625 C9.453125,5.17488281 9.27824219,5 9.0625,5 L5.9375,5 C5.72175781,5 5.546875,5.17488281 5.546875,5.390625 L5.546875,11.796875 L4.609375,11.796875 L4.609375,7.890625 C4.609375,7.67488281 4.43449219,7.5 4.21875,7.5 L1.09375,7.5 C0.878007813,7.5 0.703125,7.67488281 0.703125,7.890625 L0.703125,11.796875 L0.390625,11.796875 C0.174882813,11.796875 0,11.9717578 0,12.1875 C0,12.4032422 0.174882813,12.578125 0.390625,12.578125 L19.609375,12.578125 C19.8251172,12.578125 20,12.4032422 20,12.1875 C20,11.9717578 19.8251172,11.796875 19.609375,11.796875 L19.296875,11.796875 Z" id="Fill-1" fill="#FFFFFF" mask="url(#mask-2)"></path>
                    </g>
                    <path d="M0.612867788,9.58490607 C0.755709695,9.58490607 0.898607421,9.53771191 1.00756694,9.44342021 L6.68345346,4.53160509 L9.7156204,7.15559051 C9.93359525,7.34422222 10.2870438,7.34422222 10.5050745,7.15559051 L16.8679865,1.64923529 L16.8679865,2.37419936 C16.8679865,2.64098884 17.1178901,2.85725111 17.4261808,2.85725111 C17.7344714,2.85725111 17.984375,2.64098884 17.984375,2.37419936 L17.984375,0.483051751 C17.984375,0.216262269 17.7344714,0 17.4261808,0 L15.2408503,0 C14.9325596,0 14.6826561,0.216262269 14.6826561,0.483051751 C14.6826561,0.749841234 14.9325596,0.966103503 15.2408503,0.966103503 L16.0785324,0.966103503 L10.1103754,6.13089283 L7.07820843,3.50690741 C6.86023357,3.31832401 6.50678498,3.31832401 6.28875431,3.50690741 L0.218168639,8.76024012 C0.000193787043,8.94887183 0.000193787043,9.2547402 0.218168639,9.44337191 C0.327128155,9.53771191 0.470025881,9.58490607 0.612867788,9.58490607" id="Fill-6" fill="#38A791"></path>
                </g>
            </g>
        </g>
    </g>
</svg>