<svg xmlns="http://www.w3.org/2000/svg" width="32" height="32" viewBox="0 0 32 32">
    <g fill="none" fill-rule="evenodd">
        <circle cx="16" cy="16" r="16" fill="#38A791"/>
        <path fill="#FFF" d="M24.834 14.727a2.051 2.051 0 0 0-1.504-.627h-.71v-2.84c0-.296-.074-.621-.222-.976-.148-.355-.325-.637-.532-.843L20.18 7.755c-.208-.208-.488-.385-.843-.533-.355-.148-.681-.222-.977-.222h-7.455c-.296 0-.547.104-.754.31-.208.207-.31.46-.31.755V14.1h-.71c-.585 0-1.086.209-1.504.627A2.048 2.048 0 0 0 7 16.229v4.616a.34.34 0 0 0 .106.25c.07.07.153.105.249.105H9.84v1.774c0 .296.103.548.31.755.208.207.459.31.755.31h10.65c.296 0 .547-.103.754-.31.208-.207.311-.459.311-.755V21.2h2.485c.096 0 .18-.035.25-.106a.34.34 0 0 0 .105-.25V16.23a2.05 2.05 0 0 0-.626-1.502zM11.26 22.619h9.94v-2.84h-9.94v2.84zm9.94-7.099h-9.94v-7.1h7.1v1.775c0 .295.104.548.31.754.208.208.46.31.755.31H21.2v4.261zm2.63 1.209a.68.68 0 0 1-.5.21.679.679 0 0 1-.499-.21.683.683 0 0 1-.21-.5c0-.192.07-.358.21-.498.14-.141.307-.21.499-.21.193 0 .359.069.5.21.14.14.21.306.21.498a.68.68 0 0 1-.21.5z"/>
    </g>
</svg>
