<?xml version="1.0" encoding="UTF-8"?>
<svg width="21px" height="22px" viewBox="0 0 21 22" version="1.1" xmlns="http://www.w3.org/2000/svg" xmlns:xlink="http://www.w3.org/1999/xlink">
    <!-- Generator: Sketch 49.1 (51147) - http://www.bohemiancoding.com/sketch -->
    <title>timeline</title>
    <desc>Created with Sketch.</desc>
    <defs>
        <polygon id="path-1" points="0.00251497006 0 20.9733413 0 20.9733413 21.4610778 0.00251497006 21.4610778"></polygon>
    </defs>
    <g id="Page-1" stroke="none" stroke-width="1" fill="none" fill-rule="evenodd">
        <g id="Library" transform="translate(-1227.000000, -247.000000)">
            <g id="timeline" transform="translate(1227.000000, 247.000000)">
                <mask id="mask-2" fill="white">
                    <use xlink:href="#path-1"></use>
                </mask>
                <g id="Clip-2"></g>
                <path d="M1.4632515,16.5835449 L9.75502395,16.5835449 L9.75502395,15.1202934 L1.4632515,15.1202934 L1.4632515,16.5835449 Z M11.2182754,16.5835449 L19.5100898,16.5835449 L19.5100898,15.1202934 L11.2182754,15.1202934 L11.2182754,16.5835449 Z M1.4632515,10.7305389 L9.75502395,10.7305389 L9.75502395,9.26728743 L1.4632515,9.26728743 L1.4632515,10.7305389 Z M11.2182754,10.7305389 L16.5835449,10.7305389 L16.5835449,9.26728743 L11.2182754,9.26728743 L11.2182754,10.7305389 Z M9.26728743,1.4632515 L11.7060539,1.4632515 L11.7060539,3.84283234 L10.4866707,5.06221557 L9.26728743,3.84283234 L9.26728743,1.4632515 Z M20.9733413,18.0467964 L20.9733413,13.6570419 L11.2182754,13.6570419 L11.2182754,12.1937904 L18.0467964,12.1937904 L18.0467964,7.80403593 L11.2182754,7.80403593 L11.2182754,6.39992814 L13.1693054,4.44894012 L13.1693054,0 L7.80403593,0 L7.80403593,4.44894012 L9.75502395,6.39992814 L9.75502395,7.80403593 L0,7.80403593 L0,12.1937904 L9.75502395,12.1937904 L9.75502395,13.6570419 L0,13.6570419 L0,18.0467964 L9.75502395,18.0467964 L9.75502395,19.842485 C9.6037485,20.0143413 9.51115569,20.2390958 9.51115569,20.4855629 C9.51115569,21.0234731 9.94876048,21.4610778 10.4866707,21.4610778 C11.0245389,21.4610778 11.4621856,21.0234731 11.4621856,20.4855629 C11.4621856,20.2390958 11.3695928,20.0144251 11.2182754,19.842485 L11.2182754,18.0467964 L20.9733413,18.0467964 Z" id="Fill-1" fill="#343C49" mask="url(#mask-2)"></path>
            </g>
        </g>
    </g>
</svg>