<?xml version="1.0" encoding="UTF-8"?>
<svg width="22px" height="22px" viewBox="0 0 22 22" version="1.1" xmlns="http://www.w3.org/2000/svg" xmlns:xlink="http://www.w3.org/1999/xlink">
    <!-- Generator: Sketch 49.1 (51147) - http://www.bohemiancoding.com/sketch -->
    <title>arrow-down-on-black-circular-background</title>
    <desc>Created with Sketch.</desc>
    <defs></defs>
    <g id="Page-1" stroke="none" stroke-width="1" fill="none" fill-rule="evenodd">
        <g id="Tooltip" transform="translate(-772.000000, -393.000000)" fill="#FFF200" stroke="#343C49">
            <path d="M791.495446,399.310099 C790.609109,397.791683 789.406931,396.589703 787.887921,395.703168 C786.369505,394.816832 784.711089,394.373465 782.912673,394.373465 C781.114257,394.373465 779.455842,394.816832 777.937426,395.703168 C776.418218,396.588911 775.21604,397.791683 774.329703,399.310099 C773.443168,400.829307 773,402.487723 773,404.286139 C773,406.083762 773.443168,407.742178 774.329703,409.261386 C775.21604,410.779802 776.418218,411.982574 777.936634,412.868317 C779.455842,413.754653 781.114257,414.19802 782.912673,414.19802 C784.711089,414.19802 786.369505,413.754653 787.887921,412.868317 C789.406337,411.982574 790.609109,410.779802 791.495446,409.261386 C792.381188,407.742178 792.824356,406.083762 792.824356,404.286139 C792.824356,402.487723 792.381188,400.828515 791.495446,399.310099 Z M789.339802,404.879406 L784.667723,409.551485 L783.493465,410.726337 C783.33802,410.881188 783.144554,410.958416 782.912673,410.958416 C782.680594,410.958416 782.486337,410.881188 782.331683,410.726337 L781.157426,409.551485 L776.484752,404.879406 C776.329901,404.724752 776.252673,404.531287 776.252673,404.298416 C776.252673,404.066535 776.329901,403.873069 776.484752,403.717624 L777.659604,402.543366 C777.822772,402.380198 778.016238,402.298218 778.240594,402.298218 C778.464158,402.298218 778.657426,402.380198 778.821386,402.543366 L781.260396,404.982376 L781.260396,398.503366 C781.260396,398.279802 781.342376,398.086337 781.505545,397.923168 C781.668713,397.759208 781.86297,397.677228 782.086535,397.677228 L783.738614,397.677228 C783.962178,397.677228 784.155644,397.759208 784.319604,397.923168 C784.482772,398.086337 784.564752,398.279802 784.564752,398.503366 L784.564752,404.982376 L787.003762,402.543366 C787.158416,402.388713 787.351881,402.311287 787.584554,402.311287 C787.816634,402.311287 788.010099,402.388713 788.165545,402.543366 L789.339802,403.717624 C789.495248,403.873069 789.572475,404.066535 789.572475,404.298416 C789.572475,404.531287 789.495248,404.724752 789.339802,404.879406 Z" id="arrow-down-on-black-circular-background" transform="translate(783.000000, 404.099010) scale(1, -1) translate(-783.000000, -404.099010) "></path>
        </g>
    </g>
</svg>