<?xml version="1.0" encoding="UTF-8"?>
<svg width="40px" height="40px" viewBox="0 0 40 40" version="1.1" xmlns="http://www.w3.org/2000/svg" xmlns:xlink="http://www.w3.org/1999/xlink">
    <!-- Generator: Sketch 49.1 (51147) - http://www.bohemiancoding.com/sketch -->
    <title>Artboard Copy 4</title>
    <desc>Created with Sketch.</desc>
    <defs></defs>
    <g id="Artboard-Copy-4" stroke="none" stroke-width="1" fill="none" fill-rule="evenodd">
        <g id="Group-7" transform="translate(0.000000, 2.000000)">
            <g id="Group-2" transform="translate(0.000000, 0.196078)">
                <rect id="Rectangle" x="0" y="0" width="39.9019608" height="36.1764706"></rect>
                <path d="M14.154588,11.9607843 L7.15686275,4.89990644 C7.44145482,4.07801885 8.03189835,3.29835492 8.92819333,2.56091466 C10.219766,1.44353895 11.7458479,0.884851098 13.5064389,0.884851098 C16.1473255,0.884851098 15.6009241,1.91806889 19.0166735,1.79712905 C22.4324228,1.67618922 21.9531994,1.13223882 23.1762085,0.651188095 C24.3992175,0.170137373 26.4879445,0.435069264 27.3260388,0.651188095 C28.5255806,0.960513191 29.4770656,1.58716517 29.8161302,1.79712905 C30.2001046,2.03490316 31.4975985,3.3602712 33.7086119,5.77323317 L26.9943112,11.9607843 L14.154588,11.9607843 Z" id="Path-4" fill="#D8D8D8"></path>
            </g>
            <g id="Group-3" transform="translate(0.098039, 0.000000)">
                <rect id="Rectangle" x="0" y="0" width="39.9019608" height="36.1764706"></rect>
                <path d="M27.8110859,12.2335284 L34.1945536,6.19894022 C34.5175944,6.28098538 34.8028394,7.22494498 35.0502887,9.03081905 C35.1848942,10.0131641 35.2213708,13.1777942 35.3219792,14.5853607 C35.3782079,15.3720306 35.4776478,16.0448995 35.620299,16.6039673 C36.6519386,18.5556027 37.4259267,20.1165937 37.9422633,21.2869402 C38.7167683,23.0424599 39.0005968,23.0781184 39.3313036,24.7528835 C39.6620103,26.4276486 39.6605752,27.2168815 38.8899414,29.4032895 C38.3761856,30.8608948 37.6901221,31.9244462 36.8317508,32.5939437 L27.8110859,24.4009453 L27.8110859,12.2335284 Z" id="Path-7" fill="#D8D8D8"></path>
            </g>
            <g id="Group-4" transform="translate(0.098039, 0.000000)">
                <rect id="Rectangle" x="0" y="0" width="39.9019608" height="36.1764706"></rect>
                <path d="M12.2147908,25.9017205 L28.3931514,25.9017205 L35.9778149,33.578507 C34.2212939,35.1235435 32.5775363,35.9895314 31.0465421,36.1764706 C28.7500508,36.4568794 24.056179,35.0706457 23.7574994,35.0706457 C23.4588198,35.0706457 20.2165263,34.2444186 19.4494954,34.2444186 C18.6824645,34.2444186 14.2405945,34.8855003 13.963866,35.0706457 C13.6871375,35.2557911 11.8038107,35.7133467 9.97685264,35.7133467 C8.14989455,35.7133467 7.34261218,35.584889 6.35851074,35.0706457 C5.70244312,34.7278168 5.117079,34.1433523 4.6024184,33.3172523 L12.2147908,25.9017205 Z" id="Path-8" fill="#D8D8D8"></path>
            </g>
            <g id="Group-5" transform="translate(0.098039, 0.000000)">
                <rect id="Rectangle" x="0" y="0" width="39.9019608" height="36.1764706"></rect>
                <path d="M6.25805468,5.54478953 C5.15232912,7.67633271 4.49917418,8.98623187 4.29858985,9.47448702 C3.99771337,10.2068697 3.59561157,12.0822803 3.47768607,12.5189832 C3.25048752,13.3603473 3.25048752,14.7836742 3.25048752,15.4508587 C3.25048752,15.8956484 3.06335238,16.7747739 2.68908211,18.0882353 C1.93919676,19.5012372 1.43902775,20.5612479 1.18857508,21.2682672 C0.721325466,22.5872969 0.349253203,23.8115156 0.474522543,25.3357204 C0.601146705,26.8764099 1.30000052,28.2038121 2.03404559,29.5269666 C2.41805873,30.2191703 3.09159245,31.2253384 4.05464675,32.5454707 L12.8636279,24.1210213 L12.8636279,12.1200114 L6.25805468,5.54478953 Z" id="Path-9" fill="#D8D8D8"></path>
            </g>
            <g id="Group-6" transform="translate(0.098039, 0.000000)" fill="#D8D8D8">
                <rect id="Rectangle-69" x="13.7254902" y="12.8431373" width="13.0392157" height="12.0588235"></rect>
            </g>
        </g>
    </g>
</svg>