<svg xmlns="http://www.w3.org/2000/svg" width="70" height="78" viewBox="0 0 70 78">
    <path fill="none" fill-rule="evenodd" stroke="#38A791" stroke-width="3" d="M60.7 37.064c-4.91 7.202-5.64 13.094-6.346 18.792-.49 3.96-.954 7.7-2.745 11.942C49.484 72.83 48.251 73 48.096 73h-.005c-.056-.001-1.385-.094-3.376-5.512-.87-2.364-1.454-5.302-2.02-8.144-.635-3.19-1.234-6.203-2.223-8.555-1.264-3.01-3.103-4.535-5.464-4.535h-.04c-2.37.017-4.216 1.554-5.483 4.57-.988 2.35-1.588 5.354-2.222 8.535-.566 2.833-1.15 5.763-2.02 8.13-1.988 5.405-3.32 5.498-3.375 5.5-.13.002-1.377-.116-3.52-5.19-1.879-4.45-2.321-8.195-2.79-12.161-.657-5.556-1.336-11.301-6.291-18.56C.595 24.372 5.822 9.22 15.764 6.038c8.645-2.763 15.78.828 18.446 2.5.47.295 1.067.295 1.537 0 2.667-1.672 9.804-5.262 18.447-2.499C64.332 9.28 69.196 24.6 60.7 37.064zM55.075 3.296C46.018.4 38.45 3.64 34.978 5.638 31.508 3.64 23.941.399 14.881 3.296 2.884 7.133-2.74 24.603 6.88 38.699c4.557 6.675 5.166 11.824 5.81 17.276.471 3.99.96 8.117 2.997 12.941 1.37 3.243 3.306 6.953 6.171 6.953h.078c2.304-.055 4.16-2.334 6.02-7.39.947-2.577 1.554-5.618 2.14-8.558 1.057-5.294 2.149-10.767 4.894-10.786h.014c2.715 0 3.805 5.475 4.859 10.77.587 2.95 1.194 6 2.141 8.575 1.861 5.063 3.718 7.346 6.02 7.4h.078c2.86 0 4.798-3.715 6.17-6.964 1.947-4.61 2.457-8.726 2.95-12.707.695-5.605 1.35-10.899 5.868-17.525C72.82 24.406 66.87 7.067 55.075 3.296z"/>
</svg>
