<svg xmlns="http://www.w3.org/2000/svg" width="69" height="66" viewBox="0 0 69 66">
    <path fill="none" fill-rule="evenodd" stroke="#9B9B9B" stroke-width="3" d="M62.027 7.837C58.657 4.073 54.017 2 48.965 2c-3.95 0-8.21 2.345-11.324 4.058-1.134.624-2.683 1.477-3.141 1.532-.457-.055-1.998-.905-3.129-1.53C28.266 4.348 24.013 2 20.035 2c-5.053 0-9.692 2.073-13.063 5.837C3.766 11.418 2 16.132 2 21.11c0 7.111 2.56 17.224 6.848 27.053 1.908 4.372 3.938 8.151 5.873 10.927C17.022 62.394 18.998 64 20.76 64c.782 0 2.213-.33 3.017-2.547.78-2.153 1.483-4.625 2.228-7.246 1.97-6.939 4.422-15.573 8.37-15.573h.25c1.755 0 3.326 1.499 4.803 4.584 1.464 3.056 2.576 7.121 3.653 11.056.712 2.602 1.384 5.058 2.14 7.174.787 2.202 2.202 2.531 2.977 2.532 1.753 0 3.727-1.63 6.034-4.985 1.929-2.804 3.964-6.62 5.884-11.035C64.426 38.052 67 28.014 67 21.11c0-4.978-1.766-9.692-4.973-13.273zm-14.28 5.105c-.041-.003-4.123-.198-7.838-1.18-1.676-.442-3.657-1.331-3.657-1.595 0-.257 2.152-1.507 2.672-1.793 2.858-1.573 6.773-3.727 10.041-3.727 9.628 0 15.381 8.37 15.381 16.463 0 6.463-2.553 16.347-6.663 25.795-1.828 4.202-3.83 7.963-5.64 10.592-2.086 3.034-3.436 3.916-3.845 3.836-.252-.05-.282-.227-.477-.774-.723-2.023-1.383-4.434-2.082-6.986-1.106-4.043-2.25-8.223-3.817-11.495-1.962-4.1-4.316-6.091-7.197-6.091h-.25c-2.775 0-5.075 1.976-7.03 6.042-1.562 3.246-2.748 7.419-3.893 11.456-.73 2.572-1.42 5.001-2.17 7.068-.165.456-.217.754-.522.8-.239.037-1.26-.043-3.86-3.773-1.81-2.598-3.805-6.317-5.62-10.473-4.087-9.372-6.626-19.332-6.626-25.997 0-8.093 5.753-16.463 15.38-16.463 2.504 0 5.792 1.137 8.799 3.042.44.28 1.061.756 1.662 1.216.24.184.476.365.695.53a30.017 30.017 0 0 0 2.775 1.871c.477.28 1.07.63 1.7.897a19.355 19.355 0 0 0 7.594 1.537c2.678 0 4.48-.474 4.497-.48 0 0 .403-.106.39-.211-.012-.104-.4-.107-.4-.107z"/>
</svg>
