<svg xmlns="http://www.w3.org/2000/svg" width="98" height="81" viewBox="0 0 98 81">
    <g fill="none" fill-rule="evenodd">
        <path stroke="#979797" stroke-width="3" d="M52.5 32.166c-4.225 6.196-4.852 11.264-5.46 16.166-.422 3.407-.82 6.624-2.362 10.274-1.828 4.328-2.888 4.475-3.022 4.475h-.004c-.048-.001-1.191-.081-2.905-4.742-.747-2.033-1.25-4.561-1.737-7.006-.546-2.744-1.062-5.337-1.912-7.36-1.089-2.589-2.67-3.901-4.701-3.901h-.035c-2.04.014-3.627 1.337-4.717 3.93-.85 2.023-1.366 4.607-1.912 7.343-.486 2.438-.989 4.958-1.737 6.994-1.71 4.651-2.856 4.731-2.904 4.732-.111.002-1.184-.1-3.028-4.465-1.616-3.827-1.997-7.05-2.4-10.462-.565-4.78-1.15-9.722-5.412-15.966C.792 21.246 5.288 8.21 13.84 5.475c7.437-2.379 13.575.71 15.869 2.15.404.253.918.254 1.323 0 2.294-1.439 8.434-4.528 15.869-2.15 8.722 2.788 12.907 15.967 5.597 26.69zM47.66 3.115C39.868.623 33.357 3.41 30.371 5.13 27.386 3.41 20.875.623 13.081 3.115c-10.32 3.301-15.16 18.33-6.884 30.457 3.92 5.743 4.444 10.172 4.999 14.862.405 3.433.825 6.983 2.578 11.134 1.178 2.79 2.844 5.981 5.309 5.981h.067c1.982-.047 3.58-2.008 5.179-6.357.815-2.217 1.336-4.833 1.841-7.363.909-4.554 1.849-9.263 4.21-9.28h.013c2.335 0 3.273 4.711 4.18 9.266.505 2.538 1.027 5.163 1.841 7.377 1.602 4.356 3.199 6.32 5.179 6.366l.067.001c2.46 0 4.128-3.197 5.309-5.992 1.674-3.966 2.113-7.507 2.537-10.932.598-4.821 1.162-9.375 5.048-15.076 8.373-12.283 3.254-27.2-6.894-30.444z" opacity=".755"/>
        <path fill="#FFF" stroke="#9B9B9B" stroke-width="5" d="M91.098 33.58C93.614 36.39 95 40.088 95 43.994c0 5.417-2.019 13.293-5.4 21.067-1.508 3.464-3.105 6.458-4.618 8.658-1.81 2.632-3.359 3.911-4.734 3.911-.609 0-1.719-.259-2.337-1.986-.592-1.66-1.12-3.587-1.678-5.629-.845-3.087-1.718-6.277-2.866-8.675-1.159-2.42-2.392-3.597-3.769-3.597h-.196c-3.098 0-5.021 6.775-6.567 12.219-.585 2.057-1.136 3.996-1.748 5.686-.63 1.738-1.754 1.998-2.368 1.998-1.382 0-2.932-1.26-4.738-3.852-1.518-2.178-3.111-5.143-4.608-8.574C46.01 57.51 44 49.573 44 43.994c0-3.906 1.385-7.604 3.901-10.414 2.645-2.954 6.285-4.58 10.25-4.58 3.12 0 6.457 1.842 8.894 3.186.887.49 2.097 1.157 2.455 1.2.359-.043 1.575-.713 2.464-1.202C74.407 30.84 77.75 29 80.85 29c3.964 0 7.604 1.626 10.248 4.58z"/>
    </g>
</svg>
