<?xml version="1.0" encoding="UTF-8"?>
<svg width="407px" height="369px" viewBox="0 0 407 369" version="1.1" xmlns="http://www.w3.org/2000/svg" xmlns:xlink="http://www.w3.org/1999/xlink">
    <!-- Generator: Sketch 49.1 (51147) - http://www.bohemiancoding.com/sketch -->
    <title>Artboard</title>
    <desc>Created with Sketch.</desc>
    <defs></defs>
    <g id="Artboard" stroke="none" stroke-width="1" fill="none" fill-rule="evenodd">
        <g id="Group-2" transform="translate(-1.000000, 2.000000)">
            <rect id="Rectangle" x="0" y="0" width="407" height="369"></rect>
            <path d="M144.376798,122 L73,49.9790457 C75.9028392,41.5957923 81.9253632,33.6432202 91.067572,26.1213295 C104.241613,14.7240973 119.807648,9.0254812 137.765677,9.0254812 C164.70272,9.0254812 159.129426,19.5643026 193.970069,18.3307163 C228.810713,17.0971301 223.922634,11.5488359 236.397327,6.64211857 C248.872019,1.7354012 270.177034,4.43770649 278.725596,6.64211857 C290.960922,9.79723455 300.666069,16.1890847 304.124528,18.3307163 C308.041067,20.7560123 321.275505,34.2747663 343.827841,58.8869784 L275.341974,122 L144.376798,122 Z" id="Path-4" fill="#D8D8D8"></path>
        </g>
        <g id="Group-3">
            <rect id="Rectangle" x="0" y="0" width="407" height="369"></rect>
            <path d="M283.673076,124.78199 L348.784446,63.2291903 C352.079462,64.0660508 354.988962,73.6944388 357.512945,92.1143543 C358.885921,102.134274 359.257982,134.413501 360.284188,148.770679 C360.857721,156.794712 361.872008,163.657975 363.32705,169.360466 C373.849774,189.267148 381.744452,205.189256 387.011086,217.12679 C394.911036,235.033091 397.806088,235.396807 401.179296,252.479411 C404.552505,269.562016 404.537867,277.612191 396.677403,299.913553 C391.437093,314.781127 384.439245,325.629352 375.683858,332.458226 L283.673076,248.889642 L283.673076,124.78199 Z" id="Path-7" fill="#D8D8D8"></path>
        </g>
        <g id="Group-4">
            <rect id="Rectangle" x="0" y="0" width="407" height="369"></rect>
            <path d="M124.590866,264.197549 L289.610144,264.197549 L366.973712,342.500771 C349.057198,358.260144 332.29087,367.09322 316.67473,369 C293.250518,371.860169 245.373026,357.720586 242.326494,357.720586 C239.279962,357.720586 206.208569,349.29307 198.384853,349.29307 C190.561138,349.29307 145.254064,355.832103 142.431433,357.720586 C139.608802,359.609069 120.39887,364.276136 101.763897,364.276136 C83.1289244,364.276136 74.8946442,362.965868 64.8568096,357.720586 C58.1649198,354.223731 52.1942058,348.262194 46.9446677,339.835973 L124.590866,264.197549 Z" id="Path-8" fill="#D8D8D8"></path>
        </g>
        <g id="Group-5">
            <rect id="Rectangle" x="0" y="0" width="407" height="369"></rect>
            <path d="M63.8321577,56.5568533 C52.553757,78.2985936 45.8915766,91.6595651 43.8456165,96.6397676 C40.7766763,104.110071 36.6752381,123.239259 35.4723979,127.693629 C33.1549727,136.275543 33.1549727,150.793477 33.1549727,157.598759 C33.1549727,162.135613 31.2461943,171.102694 27.4286376,184.5 C19.779807,198.91262 14.6780831,209.724728 12.1234659,216.936326 C7.35751976,230.390429 3.56238267,242.877459 4.84012993,258.424348 C6.13169639,274.139381 13.2600053,287.678884 20.747265,301.175059 C24.6641991,308.235537 31.534243,318.498451 41.3573968,331.963801 L131.209004,246.034417 L131.209004,123.624116 L63.8321577,56.5568533 Z" id="Path-9" fill="#D8D8D8"></path>
        </g>
        <g id="Group-6">
            <rect id="Rectangle" x="0" y="0" width="407" height="369"></rect>
            <rect id="Rectangle-69" fill="#D8D8D8" x="140" y="131" width="133" height="123"></rect>
        </g>
    </g>
</svg>