<svg xmlns="http://www.w3.org/2000/svg" xmlns:xlink="http://www.w3.org/1999/xlink" width="24" height="24" viewBox="0 0 24 24">
    <defs>
        <path id="a" d="M0 0h24v23.996H0z"/>
    </defs>
    <g fill="none" fill-rule="evenodd">
        <g>
            <mask id="b" fill="#fff">
                <use xlink:href="#a"/>
            </mask>
            <path fill="#000" d="M21.89 5.719h-2.156V.703A.703.703 0 0 0 19.031 0H4.97a.703.703 0 0 0-.703.703V5.72H2.109C.946 5.719 0 6.665 0 7.829v7.03c0 1.163.946 2.11 2.11 2.11h2.156v6.328c0 .388.314.703.703.703h9.843c.19 0 .37-.078.498-.207l4.22-4.218a.71.71 0 0 0 .204-.497v-2.11h2.157c1.163 0 2.109-.946 2.109-2.109V7.83c0-1.164-.946-2.11-2.11-2.11zm-16.218 0h12.656V1.406H5.672V5.72zm0 7.031h12.656v5.625h-3.515a.703.703 0 0 0-.704.703v3.516H5.672V12.75zm9.844 8.85V19.78h1.818L15.516 21.6zm7.078-6.74a.704.704 0 0 1-.703.703h-2.157V12.75h.703a.703.703 0 1 0 0-1.406H3.563a.703.703 0 1 0 0 1.406h.704v2.813H2.109a.704.704 0 0 1-.703-.704V7.83c0-.389.316-.704.703-.704h19.782c.387 0 .703.315.703.703v7.031z" mask="url(#b)"/>
        </g>
        <path fill="#000" d="M19.734 9.234a.703.703 0 1 1-1.406 0 .703.703 0 0 1 1.406 0z"/>
    </g>
</svg>
