<svg xmlns="http://www.w3.org/2000/svg" xmlns:xlink="http://www.w3.org/1999/xlink" width="27" height="27" viewBox="0 0 27 27">
    <defs>
        <path id="a" d="M0 0h27v26.995H0z"/>
    </defs>
    <g fill="none" fill-rule="evenodd">
        <g>
            <mask id="b" fill="#fff">
                <use xlink:href="#a"/>
            </mask>
            <path fill="#FFF" d="M7.2 8.1h.45C8.395 8.1 9 7.495 9 6.75V6.3h-.9v.45a.45.45 0 0 1-.45.45H7.2v.9z" mask="url(#b)"/>
            <path fill="#FFF" d="M.273 18.414l.177.076v3.56c0 .142.067.275.18.36l1.8 1.35a.45.45 0 0 0 .172.08l.548.121v2.589c0 .248.202.45.45.45h9a.45.45 0 0 0 .45-.45v-8.1l1.074.806 2.245 1.795a.45.45 0 0 0 .281.099H18a.45.45 0 0 0 .25-.076l2.45-1.633V27h.9v-7.65h.45a.45.45 0 0 0 .318-.132l.9-.9A.45.45 0 0 0 23.4 18v-1.8a.45.45 0 0 0-.45-.45H21.6V4.95h1.8c0 .201.045.4.132.582l-.9.9a.45.45 0 0 0-.132.318V9.9c0 .12.047.234.132.318l1.35 1.35a.45.45 0 0 0 .318.132h.9a.45.45 0 0 0 .318-.132l1.35-1.35A.45.45 0 0 0 27 9.9V6.75a.45.45 0 0 0-.132-.318l-.9-.9a1.34 1.34 0 0 0 .132-.582v-.9h-.9v.9a.45.45 0 0 1-.9 0V4.5a.45.45 0 0 0-.45-.45h-5.4a.45.45 0 0 0-.45.45v.45a.45.45 0 0 1-.9 0v-.9h-.9v.9c0 .201.045.4.132.582l-.9.9a.45.45 0 0 0-.132.318V9.9c0 .12.047.234.132.318l1.35 1.35a.45.45 0 0 0 .318.132v.868a8.076 8.076 0 0 0 1.306 4.424l-.734.42-1.095-1.46-1.786-3.125a.453.453 0 0 0-.172-.17l-3.955-2.197-.506-.759A3.598 3.598 0 0 0 11.7 6.75V2.7A2.703 2.703 0 0 0 9 0H7.2a2.703 2.703 0 0 0-2.7 2.7v4.05c0 1.177.576 2.279 1.542 2.951l-.506.759-3.955 2.197a.45.45 0 0 0-.215.275l-1.35 4.95a.45.45 0 0 0 .257.532zm24.74-7.614h-.527L23.4 9.714V8.55h.397c.26 0 .518.06.752.178.358.178.754.271 1.154.272h.397v.714L25.014 10.8zm.319-4.632l.768.768V8.1h-.397c-.26 0-.518-.06-.752-.178a2.597 2.597 0 0 0-1.154-.272H23.4v-.714l.768-.768c.368.176.796.176 1.164 0zM1.35 21.825v-2.95l1.8.772V20.7c0 .18.107.343.273.414l3.15 1.35a.45.45 0 0 0 .378-.011l.805-.403h1.058l.636.636v1.164H6.8l-3.908-.868-1.542-1.157zm2.7 2.336l2.25.5V26.1H4.05v-1.94zM16.968 6.168c.368.176.796.176 1.164 0l.768.768V8.1h-.397c-.26 0-.518-.06-.752-.178a2.597 2.597 0 0 0-1.154-.272H16.2v-.714l.768-.768zM16.2 9.714V8.55h.397c.26 0 .518.06.752.178.358.178.754.271 1.154.272h.397v.714L17.814 10.8h-.528L16.2 9.714zm1.8 2.854V11.7a.45.45 0 0 0 .318-.132l1.35-1.35A.45.45 0 0 0 19.8 9.9V6.75a.45.45 0 0 0-.132-.318l-.9-.9a1.34 1.34 0 0 0 .132-.582h1.8v10.8a.452.452 0 0 0-.223.06l-1.288.735A7.18 7.18 0 0 1 18 12.568zm-.227 5.823l1.169-.668c.169.206.349.404.54.595l.636-.636a7.271 7.271 0 0 1-.382-.413l1.084-.619h1.68v1.164l-.636.636H20.7a.45.45 0 0 0-.25.076l-2.586 1.724h-1.056l-1.805-1.444 1.219-1.827.968 1.291a.45.45 0 0 0 .583.12zm-2.102-2.21l-1.381 2.074-1.24-.93V15.75h-.9V26.1H7.2v-1.35h2.7a.45.45 0 0 0 .45-.45v-1.8a.45.45 0 0 0-.132-.318l-.9-.9A.45.45 0 0 0 9 21.15H7.65a.453.453 0 0 0-.201.047l-.249.125v-6.736l3.228-3.228 3.644 2.024 1.6 2.8zM5.4 2.7A1.802 1.802 0 0 1 7.2.9H9a1.802 1.802 0 0 1 1.8 1.8v.45H9.505c-.884 0-1.655-.6-1.869-1.46a.45.45 0 0 0-.873 0l-.013.055a1.853 1.853 0 0 1-1.35 1.35V2.7zm0 4.05V4.012a2.75 2.75 0 0 0 1.81-1.139A2.822 2.822 0 0 0 9.504 4.05H10.8v2.7a2.7 2.7 0 1 1-5.4 0zm2.7 3.6c.43 0 .855-.077 1.258-.227l.413.62-1.671 1.67-1.67-1.67.412-.62c.403.15.828.227 1.258.227zm-5.916 3.001l3.588-1.993 1.692 1.692-1.032 1.032a.45.45 0 0 0-.132.318v6.968l-2.25-.965V15.75h-.9v2.918L.987 17.74l1.197-4.39z" mask="url(#b)"/>
        </g>
        <path fill="#FFF" d="M7.2 5.4a.45.45 0 1 1-.9 0 .45.45 0 0 1 .9 0zM9.9 5.4a.45.45 0 1 1-.9 0 .45.45 0 0 1 .9 0z"/>
    </g>
</svg>
