<svg xmlns="http://www.w3.org/2000/svg" width="29" height="30" viewBox="0 0 29 30">
    <g fill="#FFF" fill-rule="evenodd">
        <path d="M26.046 8.495c0 .767-.621 1.388-1.388 1.388h-9.06l1.827-1.827-.654-.654-2.617 2.616a.463.463 0 0 0 0 .655l2.617 2.617.654-.655-1.827-1.827h9.06a2.316 2.316 0 0 0 2.313-2.313v-1.85h-.925v1.85zM14.944 4.794c0-.766.621-1.387 1.388-1.387h9.06l-1.827 1.827.654.654 2.617-2.617a.463.463 0 0 0 0-.654L24.219 0l-.654.654 1.827 1.827h-9.06a2.316 2.316 0 0 0-2.313 2.313v1.85h.925v-1.85z"/>
        <path d="M27.612 12.846c-.741 0-1.343.602-1.343 1.343v.806H10.406a.424.424 0 0 0-.425.424v.82H8.186a5.906 5.906 0 0 0-1.428-3.455v-7.63h2.526v.832h-1.31a.424.424 0 0 0-.422.463l.299 3.219c.047.511.47.897.984.897h.449v2.374a.424.424 0 0 0 .848 0v-2.374h.45a.984.984 0 0 0 .983-.897l.3-3.219a.424.424 0 0 0-.423-.463h-1.31v-.832h.848a1.076 1.076 0 0 0 0-2.148H9.086a.424.424 0 0 0 0 .848h1.894a.226.226 0 0 1 0 .452H6.334a.424.424 0 0 0-.424.424v7.212a26.312 26.312 0 0 0-.453-.318V4.212c0-.198.161-.358.358-.358h1.33a.424.424 0 1 0 0-.848h-1.33c-.665 0-1.206.54-1.206 1.206v6.969a5.934 5.934 0 0 0-1.923-.441V6.473c0-.74-.602-1.343-1.343-1.343C.603 5.13 0 5.732 0 6.473v8.966a.424.424 0 1 0 .848 0V6.473a.495.495 0 0 1 .99 0v21.953h-.99V17.539a.424.424 0 1 0-.848 0v11.31c0 .235.19.425.424.425h1.838c.234 0 .424-.19.424-.424v-4.411H4.61v4.41c0 .235.19.425.424.425h1.3c.235 0 .425-.19.425-.424v-4.411h3.223v1.046c0 .234.19.424.425.424h7.917a.424.424 0 1 0 0-.848H10.83v-9.218h15.439v9.218h-5.967a.424.424 0 1 0 0 .848h5.967v2.94c0 .235.19.425.424.425h1.838c.234 0 .424-.19.424-.424V14.189c0-.74-.603-1.343-1.343-1.343zM10.72 9.589a.14.14 0 0 1-.14.128H8.835a.14.14 0 0 1-.14-.128L8.44 6.834h2.538l-.256 2.755zm-3.358 6.65H2.686v-4.677c2.444.202 4.472 2.19 4.677 4.677zM5.457 28.426h.453v-3.987h-.453v3.987zm-2.77-4.836H9.98v-6.503H2.686v6.503zm25.42 4.836h-.99V14.189a.495.495 0 0 1 .99 0v14.237z"/>
    </g>
</svg>
