<svg xmlns="http://www.w3.org/2000/svg" width="25" height="29" viewBox="0 0 25 29">
    <g fill="#000" fill-rule="evenodd">
        <path d="M24.923 5.21a.35.35 0 0 0-.335-.36h-7.2v-.747h2.82c.191 0 .344-.128.344-.319V1.958A1.94 1.94 0 0 0 18.617.02H7.141a1.852 1.852 0 0 0-1.864 1.838L5.261 4.85H.41a.35.35 0 0 0-.334.36v19.292c0 .19.144.364.335.364H8.84l-.875 3.106H6.436c-.46 0-.46.69 0 .69h12.128c.46 0 .46-.69 0-.69h-1.53l-.874-3.106h8.428c.19 0 .335-.173.335-.364V5.21zm-11.086 9.084a3.212 3.212 0 1 1 6.424.001 3.212 3.212 0 0 1-6.424 0zM18.614.71h.003c.69.004 1.247.565 1.245 1.255v1.449h-2.473v-1.45c0-.687.533-1.254 1.22-1.254h.005zM5.967 1.867c.006-.644.53-1.16 1.174-1.158h9.988c-.295.345-.43.793-.43 1.255v8.447a3.445 3.445 0 0 0-.866.182.371.371 0 0 0-.262-.106H6.994c-.46 0-.46.69 0 .69h7.713c-.285.216-.54.468-.762.748H6.994c-.46 0-.46.69 0 .69h6.53c-.112.24-.202.491-.268.748H6.994c-.46 0-.46.69 0 .69h6.16c-.005.115-.008.158-.008.232 0 .43.071.857.21 1.263H5.893l.074-13.681zM.767 5.54h4.49l-.056 10.347a.347.347 0 0 0 .345.353l8.124.001a3.903 3.903 0 0 0 3.378 1.953c2.151 0 3.914-1.75 3.914-3.9 0-2.045-1.617-3.726-3.573-3.888V5.541h6.844V20.15H.767V5.54zm15.55 22.43H8.683l.875-3.105h5.886l.875 3.106zM.768 24.177h23.466V20.84H.767v3.336z"/>
        <path d="M11.249 8.236a3.195 3.195 0 1 0 0-6.39 3.195 3.195 0 0 0 0 6.39zm0-5.7a2.504 2.504 0 1 1 0 5.009 2.504 2.504 0 0 1 0-5.008z"/>
        <path d="M11.249 6.117a.323.323 0 0 1-.323-.323c0-.46-.69-.46-.69 0 0 .398.234.759.596.922v.147c0 .46.69.46.69 0V6.77a1.012 1.012 0 0 0-.273-1.987.323.323 0 1 1 .323-.323c0 .46.69.46.69 0 0-.432-.275-.816-.682-.957v-.147c0-.46-.69-.46-.69 0v.158a1.012 1.012 0 0 0 .359 1.958c.43 0 .43.646 0 .646zM6.994 9.74h8.577c.46 0 .46-.69 0-.69H6.994c-.46 0-.46.69 0 .69zM16.454 15.331a.345.345 0 0 0 .49.001l1.587-1.588a.345.345 0 1 0-.488-.488L16.7 14.6l-.646-.652c-.324-.319-.806.159-.49.485l.89.9z"/>
    </g>
</svg>
