<svg xmlns="http://www.w3.org/2000/svg" xmlns:xlink="http://www.w3.org/1999/xlink" width="28" height="28" viewBox="0 0 28 28">
    <defs>
        <path id="a" d="M0 0h22.867v8.862H0z"/>
    </defs>
    <g fill="none" fill-rule="evenodd">
        <path fill="#000" d="M0 14.467h.933v-.934H0z"/>
        <g transform="translate(0 19.133)">
            <mask id="b" fill="#fff">
                <use xlink:href="#a"/>
            </mask>
            <path fill="#000" d="M0 .933h.933V0H0zM22.4 2.333a.467.467 0 0 0-.467.467v2.333H6.067v-2.8a.467.467 0 0 0-.934 0V5.6A3.27 3.27 0 0 0 8.4 8.867h11.2A3.27 3.27 0 0 0 22.867 5.6V2.8a.467.467 0 0 0-.467-.467zm-2.8 5.6H8.4a2.337 2.337 0 0 1-2.287-1.866h15.774A2.337 2.337 0 0 1 19.6 7.933z" mask="url(#b)"/>
        </g>
        <path fill="#000" d="M5.6 7c.258 0 .467-.21.467-.467v-2.8h15.866v2.334a.467.467 0 0 0 .934 0v-2.8A3.27 3.27 0 0 0 19.6 0H8.4a3.27 3.27 0 0 0-3.267 3.267v3.266c0 .258.21.467.467.467zM8.4.933h11.2A2.337 2.337 0 0 1 21.887 2.8H6.113A2.337 2.337 0 0 1 8.4.933z"/>
        <path fill="#000" d="M12.6 2.333h.933V1.4H12.6zM14.467 2.333h.933V1.4h-.933zM12.6 26.6h2.8v-.933h-2.8zM25.667 7.467H9.8A2.336 2.336 0 0 0 7.467 9.8v8.4A2.336 2.336 0 0 0 9.8 20.533h15.867A2.336 2.336 0 0 0 28 18.2V9.8a2.336 2.336 0 0 0-2.333-2.333zm1.4 10.733a1.4 1.4 0 0 1-1.4 1.4H9.8a1.4 1.4 0 0 1-1.4-1.4V9.8a1.4 1.4 0 0 1 1.4-1.4h15.867a1.4 1.4 0 0 1 1.4 1.4v8.4z"/>
        <path fill="#000" d="M23.333 14.933c-.427.001-.84.148-1.17.417a1.867 1.867 0 1 0 0 2.9 1.866 1.866 0 1 0 1.17-3.317zM21 17.733a.933.933 0 1 1 0-1.866.933.933 0 0 1 0 1.866zm2.333 0a.918.918 0 0 1-.606-.226 1.84 1.84 0 0 0 0-1.414.933.933 0 1 1 .607 1.64zM11.667 13.067h1.866a1.4 1.4 0 0 0 1.4-1.4v-.934a1.4 1.4 0 0 0-1.4-1.4h-1.866a1.4 1.4 0 0 0-1.4 1.4v.934a1.4 1.4 0 0 0 1.4 1.4zm1.866-.934h-.466v-.466H14c0 .257-.21.466-.467.466zm.467-1.4h-.933v-.466h.466c.258 0 .467.209.467.466zm-2.8 0c0-.257.21-.466.467-.466h.466v1.866h-.466a.467.467 0 0 1-.467-.466v-.934zM20.533 12.133h.934v-1.866h-.934zM22.4 12.133h.933v-1.866H22.4zM18.667 12.133h.933v-1.866h-.933zM24.267 12.133h.933v-1.866h-.933zM10.267 18.667H16.8v-.934h-6.533zM10.267 17.267h.933v-.934h-.933zM12.133 17.267h.934v-.934h-.934zM14 17.267h.933v-.934H14zM15.867 17.267h.933v-.934h-.933zM1.867 14.467h4.666v-.934H1.867zM.933 16.333h.934V15.4H.933zM2.8 16.333h2.8V15.4H2.8zM1.867 12.6H2.8v-.933h-.933zM1.867 18.2H2.8v-.933h-.933zM3.733 18.2h2.8v-.933h-2.8zM2.8 10.733h2.8V9.8H2.8zM3.733 8.867h2.8v-.934h-2.8zM1.867 20.067H2.8v-.934h-.933zM3.733 20.067H5.6v-.934H3.733zM.933 10.733h.934V9.8H.933zM3.733 12.6h2.8v-.933h-2.8z"/>
    </g>
</svg>
