<svg xmlns="http://www.w3.org/2000/svg" xmlns:xlink="http://www.w3.org/1999/xlink" width="28" height="28" viewBox="0 0 28 28">
    <defs>
        <path id="a" d="M0 0h24.733v27.997H0z"/>
    </defs>
    <g fill="none" fill-rule="evenodd">
        <path fill="#000" d="M10.733 16.8a4.667 4.667 0 1 0 0 9.333 4.667 4.667 0 0 0 0-9.333zm0 8.4a3.733 3.733 0 1 1 0-7.466 3.733 3.733 0 0 1 0 7.466z"/>
        <g>
            <mask id="b" fill="#fff">
                <use xlink:href="#a"/>
            </mask>
            <path fill="#000" d="M10.733 20.067c.57 0 .934.276.934.466h.933c0-.663-.587-1.2-1.4-1.353v-.513h-.933v.513c-.813.152-1.4.69-1.4 1.353 0 .786.82 1.4 1.866 1.4.57 0 .934.276.934.467 0 .19-.364.467-.934.467-.57 0-.933-.276-.933-.467h-.933c0 .663.587 1.2 1.4 1.353v.514h.933v-.514c.813-.152 1.4-.689 1.4-1.353 0-.785-.82-1.4-1.867-1.4-.57 0-.933-.276-.933-.467 0-.19.363-.466.933-.466z" mask="url(#b)"/>
            <path fill="#000" d="M23.8 27.067H4.2v-11.2h7.467a1.4 1.4 0 0 0 1.4-1.4V2.8H18.2v5.6h5.6v6.533h.933V7.74L18.86 1.867h-5.793V1.4a1.4 1.4 0 0 0-1.4-1.4H1.4A1.4 1.4 0 0 0 0 1.4v13.067a1.4 1.4 0 0 0 1.4 1.4h1.867V28h21.466v-6.533H23.8v5.6zM19.133 3.46l4.007 4.007h-4.007V3.46zM.933 14.467V1.4c0-.258.21-.467.467-.467h10.267c.257 0 .466.21.466.467v13.067a.467.467 0 0 1-.466.466H1.4a.467.467 0 0 1-.467-.466z" mask="url(#b)"/>
        </g>
        <path fill="#000" d="M14.933 12.6h.934v-.933h-.934zM16.8 12.6h5.6v-.933h-5.6zM14.933 10.733h.934V9.8h-.934zM16.8 10.733h5.6V9.8h-5.6zM14.933 14.467h.934v-.934h-.934zM16.8 14.467h5.6v-.934h-5.6zM14.933 16.333h.934V15.4h-.934zM16.8 16.333h5.6V15.4h-5.6zM1.4 4.667h10.267V1.4H1.4v3.267zm.933-.934h8.4v-1.4h-8.4v1.4zM3.733 5.133H2.8a.933.933 0 0 0-.933.934V7c0 .515.418.933.933.933h.933A.933.933 0 0 0 4.667 7v-.933a.933.933 0 0 0-.934-.934zM2.8 7h.933v-.933H2.8V7zM7 5.133h-.933a.933.933 0 0 0-.934.934V7c0 .515.418.933.934.933H7A.933.933 0 0 0 7.933 7v-.933A.933.933 0 0 0 7 5.133zM6.067 7H7v-.933h-.933V7zM10.267 5.133h-.934a.933.933 0 0 0-.933.934V7c0 .515.418.933.933.933h.934A.933.933 0 0 0 11.2 7v-.933a.933.933 0 0 0-.933-.934zM9.333 7h.934v-.933h-.934V7zM3.733 8.4H2.8a.933.933 0 0 0-.933.933v.934c0 .515.418.933.933.933h.933a.933.933 0 0 0 .934-.933v-.934a.933.933 0 0 0-.934-.933zM2.8 10.267h.933v-.934H2.8v.934zM7 8.4h-.933a.933.933 0 0 0-.934.933v.934c0 .515.418.933.934.933H7a.933.933 0 0 0 .933-.933v-.934A.933.933 0 0 0 7 8.4zm-.933 1.867H7v-.934h-.933v.934zM10.267 8.4h-.934a.933.933 0 0 0-.933.933v.934c0 .515.418.933.933.933h.934a.933.933 0 0 0 .933-.933v-.934a.933.933 0 0 0-.933-.933zm-.934 1.867h.934v-.934h-.934v.934zM3.733 11.667H2.8a.933.933 0 0 0-.933.933v.933c0 .516.418.934.933.934h.933a.933.933 0 0 0 .934-.934V12.6a.933.933 0 0 0-.934-.933zM2.8 13.533h.933V12.6H2.8v.933zM7 11.667h-.933a.933.933 0 0 0-.934.933v.933c0 .516.418.934.934.934H7a.933.933 0 0 0 .933-.934V12.6A.933.933 0 0 0 7 11.667zm-.933 1.866H7V12.6h-.933v.933z"/>
        <g fill="#000">
            <path d="M10.267 11.667h-.934a.933.933 0 0 0-.933.933v.933c0 .516.418.934.933.934h.934a.933.933 0 0 0 .933-.934V12.6a.933.933 0 0 0-.933-.933zm-.934 1.866h.934V12.6h-.934v.933zM27.576 14.89a1.433 1.433 0 0 0-1.98 0l-8 8a.471.471 0 0 0-.093.135l-1.126 2.447a.467.467 0 0 0 .619.619l2.446-1.127a.467.467 0 0 0 .135-.093l8-8a1.4 1.4 0 0 0 0-1.98zm-8.6 9.26l-1.224.564.564-1.223 5.965-5.965.66.66-5.966 5.965zm6.626-6.626l-.66-.66.327-.326.66.66-.327.326zm1.316-1.316l-.33.33-.66-.66.33-.33a.477.477 0 0 1 .66 0 .467.467 0 0 1 0 .66z"/>
        </g>
    </g>
</svg>
