<svg xmlns="http://www.w3.org/2000/svg" xmlns:xlink="http://www.w3.org/1999/xlink" width="28" height="28" viewBox="0 0 28 28">
    <defs>
        <path id="a" d="M0 0h26.133v26.129H0z"/>
    </defs>
    <g fill="none" fill-rule="evenodd">
        <g transform="translate(0 1.867)">
            <mask id="b" fill="#fff">
                <use xlink:href="#a"/>
            </mask>
            <path fill="#000" d="M25.667 8.4a.467.467 0 0 0-.467.467v5.6a1.4 1.4 0 0 1-1.4 1.4H13.067v-2.334a2.333 2.333 0 1 0-4.667 0v2.334H2.333a1.4 1.4 0 0 1-1.4-1.4V2.333a1.4 1.4 0 0 1 1.4-1.4h14.934a.467.467 0 0 0 0-.933H2.333A2.336 2.336 0 0 0 0 2.333v12.134A2.336 2.336 0 0 0 2.333 16.8h1.149l-1.195 2.693c-.296.67-.261 1.44.093 2.08l1.647 2.964c.114.208.174.442.173.68v.45a.467.467 0 0 0 .933 0v-.45c0-.396-.101-.786-.293-1.133L3.193 21.12a1.408 1.408 0 0 1-.055-1.25L4.503 16.8H8.4v3.267a.467.467 0 0 0 .933 0v-6.534a1.4 1.4 0 0 1 2.8 0v12.134a.467.467 0 0 0 .934 0V18.88a2.786 2.786 0 0 0 1.866.719h1.4c.258 0 .467-.21.467-.467V16.8h7a2.336 2.336 0 0 0 2.333-2.333v-5.6a.467.467 0 0 0-.466-.467zm-9.8 10.267h-.934a1.867 1.867 0 0 1-1.866-1.867h2.8v1.867z" mask="url(#b)"/>
        </g>
        <path fill="#000" d="M22.867 0A5.134 5.134 0 1 0 28 5.133 5.14 5.14 0 0 0 22.867 0zm0 9.333a4.2 4.2 0 1 1 0-8.4 4.2 4.2 0 0 1 0 8.4z"/>
        <path fill="#000" d="M24.903 3.37l-2.97 2.97-1.07-1.07a.466.466 0 0 0-.66.66l1.4 1.4a.466.466 0 0 0 .66 0l3.3-3.3a.468.468 0 0 0-.328-.802.468.468 0 0 0-.332.142zM8.4 6.067a1.4 1.4 0 0 0-1.4-1.4H4.2a1.4 1.4 0 0 0-1.4 1.4v1.866a1.4 1.4 0 0 0 1.4 1.4H7a1.4 1.4 0 0 0 1.4-1.4V6.067zm-.933 0v.466h-.934V5.6H7c.258 0 .467.21.467.467zM3.733 7.933V6.067c0-.258.21-.467.467-.467h1.4v2.8H4.2a.467.467 0 0 1-.467-.467zM7 8.4h-.467v-.933h.934v.466c0 .258-.21.467-.467.467zM12.133 7.933h.934V6.067h-.934zM14 7.933h.933V6.067H14zM10.267 7.933h.933V6.067h-.933zM15.867 7.933h.933V6.067h-.933zM18.2 15.867a2.31 2.31 0 0 0 1.395-.475 2.332 2.332 0 0 0 3.743-1.859 2.333 2.333 0 0 0-3.743-1.859A2.31 2.31 0 0 0 18.2 11.2a2.333 2.333 0 1 0 0 4.667zm4.2-2.334a1.392 1.392 0 0 1-2.184 1.153 2.255 2.255 0 0 0 0-2.305 1.392 1.392 0 0 1 2.184 1.152zm-4.2-1.4a1.4 1.4 0 1 1 0 2.8 1.4 1.4 0 0 1 0-2.8zM2.8 15.867h4.667v-.934H2.8zM2.8 14h.933v-.933H2.8zM4.667 14H5.6v-.933h-.933zM6.533 14h.934v-.933h-.934zM13.533 15.867h.934v-.934h-.934zM6.533 11.2H8.4v-.933H6.533zM10.267 11.2h1.866v-.933h-1.866zM14 11.2h1.867v-.933H14z"/>
    </g>
</svg>
