<svg xmlns="http://www.w3.org/2000/svg" xmlns:xlink="http://www.w3.org/1999/xlink" width="28" height="28" viewBox="0 0 28 28">
    <defs>
        <path id="a" d="M0 0h28v27.997H0z"/>
    </defs>
    <g fill="none" fill-rule="evenodd">
        <mask id="b" fill="#fff">
            <use xlink:href="#a"/>
        </mask>
        <path fill="#000" d="M23.333 20.177l-1.188-.712a2.338 2.338 0 0 0-1.2-.332h-1.788c-.366 0-.73.047-1.085.14l-5.39 1.447a1.88 1.88 0 0 0-1.268 1.177l-4.74-2.565a1.858 1.858 0 0 0-1.27-.21 1.75 1.75 0 0 0-.471.156 1.834 1.834 0 0 0-.802.746 1.87 1.87 0 0 0-.247.929 1.85 1.85 0 0 0 .923 1.614l8.496 5.083c.369.229.794.35 1.228.35h6.575c.294 0 .585-.055.858-.163l1.37-.541V28H28v-9.333h-4.667v1.51zm-1.712 6.792a1.403 1.403 0 0 1-.513.098H14.53c-.263 0-.52-.075-.743-.214l-8.508-5.09a.928.928 0 0 1-.464-.81.918.918 0 0 1 .76-.912.915.915 0 0 1 .636.105l5.14 2.777c.006.029.006.057.013.085.221.815.96 1.38 1.804 1.381.26-.023.517-.07.77-.137l4.848-1.297-.24-.902-4.833 1.292a7.863 7.863 0 0 1-.545.11.933.933 0 0 1-.902-.688.853.853 0 0 1-.027-.172s-.003-.113 0-.153a.943.943 0 0 1 .687-.823l5.387-1.441c.275-.074.558-.111.843-.111h1.789a1.4 1.4 0 0 1 .719.199l1.668.999v5.027l-1.712.677zm2.646.098h2.8V19.6h-2.8v7.467zM19.247 3.733L16.744 1.23A4.17 4.17 0 0 0 13.774 0H7.907c-.362 0-.719.085-1.043.246L5.818.77c-.21.106-.443.156-.677.147L4.667.899V0H0v10.267h4.667v-1.4h.793l.282.186c.79.525 1.71.821 2.658.856v5.958H28V3.733h-8.753zM.933 9.333h2.8v-8.4h-2.8v8.4zM6.26 8.277l-.52-.344H4.668v-6.1l.44.016c.39.014.778-.07 1.128-.245l1.045-.523c.195-.097.41-.148.627-.148h5.867a3.245 3.245 0 0 1 2.31.957l1.843 1.843h-3.85l-1.133-1.132-.66.66 3.297 3.296a.936.936 0 0 1-1.321 1.326L11.507 5.13l-.327.28a2.473 2.473 0 0 1-3.146.047l-.27-.22-.588.726.273.221c.286.229.607.41.951.536v2.255a4.208 4.208 0 0 1-2.141-.698zm6.638-.437l.704.704a1.88 1.88 0 0 0 2.637.003 2.362 2.362 0 1 0 .265-.339c.32-.5.376-1.124.153-1.675h6.25A2.808 2.808 0 0 0 25.2 8.828v1.944a2.808 2.808 0 0 0-2.295 2.295h-9.41a2.808 2.808 0 0 0-2.295-2.295V8.828a2.786 2.786 0 0 0 1.697-.988zM16.8 9.8a1.4 1.4 0 1 1 2.8 0 1.4 1.4 0 0 1-2.8 0zm10.267 5.133H9.333V6.915a3.393 3.393 0 0 0 2.1-.536l.796.796c-.35.476-.905.757-1.496.758h-.466v3.734h.466c1.031 0 1.867.835 1.867 1.866V14h11.2v-.467c0-1.03.836-1.866 1.867-1.866h.466V7.933h-.466A1.867 1.867 0 0 1 23.8 6.067V5.6h-7.857l-.933-.933h12.057v10.266z" mask="url(#b)"/>
    </g>
</svg>
