<svg xmlns="http://www.w3.org/2000/svg" xmlns:xlink="http://www.w3.org/1999/xlink" width="28" height="29" viewBox="0 0 28 29">
    <defs>
        <path id="a" d="M0 0h25.2v13.062H0z"/>
        <path id="c" d="M0 .078h13.067v19.6H0z"/>
    </defs>
    <g fill="none" fill-rule="evenodd">
        <path fill="#000" d="M5.768 24.452l-.821.686-.824-.685a.467.467 0 0 0-.597 0l-.82.685-.822-.685a.467.467 0 0 0-.597 0l-.354.294V1.481l.489.37a.467.467 0 0 0 .562 0l.956-.722.953.722a.467.467 0 0 0 .563 0l.952-.72.952.72a.467.467 0 0 0 .563 0l.951-.72.95.72a.467.467 0 0 0 .563 0l.952-.72.95.72a.467.467 0 0 0 .564 0l.95-.72.953.72a.467.467 0 0 0 .563 0l.95-.72.951.72a.467.467 0 0 0 .564 0l.483-.367V13.61a.467.467 0 0 0 .933 0V.544a.467.467 0 0 0-.747-.373l-.951.722-.95-.722a.467.467 0 0 0-.564 0l-.95.722-.952-.722a.467.467 0 0 0-.563 0l-.95.722-.952-.722a.467.467 0 0 0-.563 0l-.952.722-.95-.722a.467.467 0 0 0-.563 0l-.951.722L5.69.17a.467.467 0 0 0-.564 0l-.952.722L3.22.17a.467.467 0 0 0-.56 0l-.957.722L.747.17A.467.467 0 0 0 0 .544v25.2a.467.467 0 0 0 .766.359l.82-.685.821.684a.467.467 0 0 0 .598 0l.822-.684.822.684a.467.467 0 0 0 .597 0l1.12-.933a.467.467 0 0 0-.597-.718l-.001.001z"/>
        <path fill="#000" d="M2.8 8.011v.467c0 .515.418.933.933.933l-.002.878.933.002.003-.88a.933.933 0 0 0 .933-.933v-.934a.933.933 0 0 0-.933-.933h-.934v-.933h.934v.466H5.6v-.466a.933.933 0 0 0-.933-.934h-.003l.003-.933h-.934l-.002.933a.933.933 0 0 0-.931.934v.933c0 .516.418.933.933.933h.934v.934h-.934V8.01H2.8zM7.933 9.411H15.4v-5.6H7.933v5.6zm.934-.933h5.6V4.744h-5.6v3.734zM2.8 12.211h12.6v-.933H2.8zM2.8 14.078h12.6v-.934H2.8zM2.8 15.944h3.733v-.933H2.8zM2.8 17.811h3.733v-.933H2.8zM2.8 19.678h3.733v-.934H2.8zM2.8 21.544h3.733v-.933H2.8z"/>
        <g transform="translate(2.8 15.011)">
            <mask id="b" fill="#fff">
                <use xlink:href="#a"/>
            </mask>
            <path fill="#000" d="M0 8.4h3.733v-.933H0zM24.733 0h-19.6a.467.467 0 0 0-.466.467V12.6c0 .258.209.467.466.467h19.6c.258 0 .467-.21.467-.467V.467A.467.467 0 0 0 24.733 0zM5.6 12.133h18.667V.933H5.6v11.2z" mask="url(#b)"/>
        </g>
        <path fill="#000" d="M9.8 24.811c.516 0 .933.418.933.933 0 .258.21.467.467.467h13.067c.257 0 .466-.209.466-.467 0-.515.418-.933.934-.933.257 0 .466-.209.466-.467v-5.6a.467.467 0 0 0-.466-.466.933.933 0 0 1-.934-.934.467.467 0 0 0-.466-.466H11.2a.467.467 0 0 0-.467.466.933.933 0 0 1-.933.934.467.467 0 0 0-.467.466v5.6c0 .258.21.467.467.467zm.467-5.659a1.874 1.874 0 0 0 1.34-1.34H23.86c.171.656.684 1.17 1.341 1.34v4.785a1.874 1.874 0 0 0-1.34 1.34H11.606a1.874 1.874 0 0 0-1.34-1.34v-4.785z"/>
        <path fill="#000" d="M22.4 22.011h.933a.467.467 0 0 0 0-.933H22.4a.467.467 0 0 0 0 .933zM12.133 22.011h.934a.467.467 0 0 0 0-.933h-.934a.467.467 0 0 0 0 .933z"/>
        <g transform="translate(14.933 4.667)">
            <mask id="d" fill="#fff">
                <use xlink:href="#c"/>
            </mask>
            <path fill="#000" d="M2.8 19.678a2.8 2.8 0 1 0 0-5.6 2.8 2.8 0 0 0 0 5.6zm0-4.667a1.867 1.867 0 1 1 0 3.733 1.867 1.867 0 0 1 0-3.733zM8.4 9.411a4.667 4.667 0 1 0 0-9.333 4.667 4.667 0 0 0 0 9.333zm0-8.4a3.734 3.734 0 1 1 0 7.467 3.734 3.734 0 0 1 0-7.467z" mask="url(#d)"/>
        </g>
        <path fill="#000" d="M22.864 11.744l.003.934h.933l-.003-.934h.003a.933.933 0 0 0 .933-.933v-.933a.933.933 0 0 0-.933-.934h-.933v-.933h.933v.467h.933V8.01a.933.933 0 0 0-.933-.933h-.003l.003-.934h-.933l-.003.934a.933.933 0 0 0-.93.933v.933c0 .516.417.934.933.934h.933v.933h-.933v-.467h-.934v.467c0 .514.417.932.93.933z"/>
    </g>
</svg>
