<svg xmlns="http://www.w3.org/2000/svg" xmlns:xlink="http://www.w3.org/1999/xlink" width="28" height="28" viewBox="0 0 28 28">
    <defs>
        <path id="a" d="M0 0h28v27.995H0z"/>
    </defs>
    <g fill="none" fill-rule="evenodd">
        <g>
            <mask id="b" fill="#fff">
                <use xlink:href="#a"/>
            </mask>
            <path fill="#000" d="M27.533 11.667c.258 0 .467-.21.467-.467V7.467a.463.463 0 0 0-.255-.41l.003-.005-13.534-7a.467.467 0 0 0-.429 0l-13.533 7 .002.005a.464.464 0 0 0-.254.41V11.2c0 .258.21.467.467.467h.466v13.066H.467A.467.467 0 0 0 0 25.2v2.333c0 .258.21.467.467.467h27.066c.258 0 .467-.21.467-.467V25.2a.467.467 0 0 0-.467-.467h-.466V11.667h.466zm-26.6-.934h26.134v-2.8H.933v2.8zM14 .993L25.615 7H2.385L14 .992zM.933 27.066h26.134v-1.4H.933v1.4zm.934-2.334h24.266V11.667H1.867v13.066z" mask="url(#b)"/>
        </g>
        <path fill="#000" d="M1.867 9.8H2.8v-.933h-.933zM3.733 9.8h.934v-.933h-.934zM5.6 9.8h.933v-.933H5.6zM14 9.8h12.133v-.933H14zM14 6.067c1.03 0 1.867-.838 1.867-1.867 0-1.03-.838-1.867-1.867-1.867-1.03 0-1.867.838-1.867 1.867 0 1.03.838 1.867 1.867 1.867zm0-2.8a.934.934 0 0 1 0 1.866.934.934 0 0 1 0-1.866zM3.733 23.333h14c.258 0 .467-.209.467-.466v-1.4h1.4c.258 0 .467-.21.467-.467v-1.867H21v.467a.468.468 0 0 0 .765.358l2.8-2.333a.467.467 0 0 0 0-.717l-2.8-2.333a.467.467 0 0 0-.765.358v.467h-.933v-1.867a.467.467 0 0 0-.467-.466h-14a.467.467 0 0 0-.467.466v1.4h-1.4a.467.467 0 0 0-.466.467v7.467c0 .257.209.466.466.466zm.467-2.267c.653.17 1.164.681 1.334 1.334H4.2v-1.334zM8.358 14h8.484a2.804 2.804 0 0 0 2.291 2.291v1.952a2.804 2.804 0 0 0-2.291 2.291H8.358a2.803 2.803 0 0 0-2.291-2.291V16.29A2.804 2.804 0 0 0 8.358 14zm-2.291 5.2c.653.17 1.164.68 1.333 1.333H6.067V19.2zm.087 2.267h9.162a2.814 2.814 0 0 0-.338.933H6.49a2.789 2.789 0 0 0-.337-.933zm-1.02-1.021a2.774 2.774 0 0 0-.934-.337v-1.953c.33-.057.645-.172.933-.339v2.629zM17.266 22.4H15.93c.095-.361.3-.685.585-.933h.75v.933zm.533-1.867c.17-.653.68-1.164 1.333-1.333v1.333H17.8zm3.667-4.2a.467.467 0 0 0 .463-.406l1.608 1.34-1.608 1.34a.467.467 0 0 0-.463-.407h-1.4v-1.867h1.4zm-2.334-1A1.864 1.864 0 0 1 17.8 14h1.333v1.334zM7.4 14a1.864 1.864 0 0 1-1.333 1.334V14H7.4zm-2.267 1.867v.75c-.248.285-.572.49-.933.585v-1.335h.933z"/>
        <path fill="#000" d="M12.6 19.133c1.03 0 1.867-.837 1.867-1.866 0-1.03-.838-1.867-1.867-1.867-1.03 0-1.867.837-1.867 1.867 0 1.029.838 1.866 1.867 1.866zm0-2.8a.934.934 0 0 1 0 1.867.934.934 0 0 1 0-1.867z"/>
    </g>
</svg>
