<svg xmlns="http://www.w3.org/2000/svg" xmlns:xlink="http://www.w3.org/1999/xlink" width="30" height="30" viewBox="0 0 30 30">
    <defs>
        <path id="a" d="M0 0h30v20.352H0z"/>
    </defs>
    <g fill="none" fill-rule="evenodd">
        <g transform="translate(0 9.643)">
            <mask id="b" fill="#fff">
                <use xlink:href="#a"/>
            </mask>
            <path fill="#000" d="M1.647 16.646c.093.095.22.149.353.149h6.5c.133 0 .26-.054.354-.15L10 15.48v4.37c0 .28.224.508.5.508h9c.276 0 .5-.228.5-.509v-4.37l1.146 1.168c.094.095.221.149.354.149H28c.133 0 .26-.054.354-.15l1.5-1.526a.514.514 0 0 0 .146-.36v-1.527a.505.505 0 0 0-.5-.509h-2a.505.505 0 0 0-.5-.509h-1a.498.498 0 0 0-.416.227l-.723 1.103-2.485-1.687-1.134-2.018a4.489 4.489 0 0 0-2.67-2.132l-1.136-.33c.367-.518.565-1.14.564-1.779V3.054A2.62 2.62 0 0 0 16.235.56L14.923.116a2.189 2.189 0 0 0-2 .31A2.273 2.273 0 0 0 12 2.26v3.338c0 .639.197 1.26.564 1.779l-1.135.33A4.489 4.489 0 0 0 8.758 9.84l-1.134 2.018-2.485 1.687-.723-1.103A.498.498 0 0 0 4 12.214H3c-.276 0-.5.228-.5.51h-2c-.276 0-.5.227-.5.508v1.527c0 .135.053.264.146.36l1.5 1.527zM25.5 14.404l.768-1.172h.232v1.527h1V13.74H29v.807l-1.207 1.229H25.5v-1.373zM13 2.26c0-.399.188-.774.507-1.008a1.204 1.204 0 0 1 1.1-.17l1.312.445c.472.16.843.537 1 1.018H13V2.26zm0 1.303h4v2.035c0 1.124-.895 2.036-2 2.036-1.104 0-2-.912-2-2.036V3.563zm1.91 7.124h.18l.867 4.414-.957.974-.957-.974.867-4.414zm-.495-2.094c.386.078.784.078 1.17 0L15.16 9.67h-.322l-.424-1.077zM5.5 14.523l2.777-1.885a.508.508 0 0 0 .157-.171l1.192-2.123a3.493 3.493 0 0 1 2.077-1.658l1.5-.436.777 1.977-.97 4.941a.515.515 0 0 0 .136.46l1.5 1.526a.494.494 0 0 0 .707 0l1.5-1.526a.515.515 0 0 0 .137-.46l-.97-4.94.777-1.978 1.5.436c.88.253 1.625.849 2.077 1.658l1.192 2.123a.508.508 0 0 0 .157.17l2.777 1.885v1.255h-2.793l-1.854-1.887a.494.494 0 0 0-.544-.11.51.51 0 0 0-.309.47v5.09h-8v-5.09a.51.51 0 0 0-.309-.47.494.494 0 0 0-.545.11l-1.853 1.887H5.5v-1.255zM1 13.74h1.5v1.018h1v-1.527h.232l.768 1.172v1.373H2.207L1 14.548v-.807z" mask="url(#b)"/>
        </g>
        <path fill="#000" d="M.476 20.357h1.429v1.607c0 .296.213.536.476.536h3.81c.262 0 .476-.24.476-.536v-1.607h1.428c.263 0 .476-.24.476-.536V17.68c-.001-1.48-1.066-2.677-2.38-2.679H2.38C1.067 15.002.001 16.2 0 17.679v2.142c0 .296.213.536.476.536zm5.238 1.072H2.857v-2.143c0-.888.64-1.607 1.429-1.607s1.428.72 1.428 1.607v2.143zm-4.762-3.75c.001-.888.64-1.606 1.429-1.608h3.81c.788.002 1.427.72 1.428 1.608v1.607h-.952c0-1.48-1.066-2.679-2.381-2.679-1.315 0-2.381 1.2-2.381 2.679H.952v-1.607z"/>
        <path fill="#000" d="M5.357 18.75a.536.536 0 1 1-1.072 0 .536.536 0 0 1 1.072 0zM25.179 11.786c-.888 0-1.606.64-1.608 1.428v5.715c.002.788.72 1.427 1.608 1.428h3.214c.887 0 1.606-.64 1.607-1.428v-5.715c-.001-.788-.72-1.427-1.607-1.428h-3.214zm3.75 1.428v5.715c0 .262-.24.475-.536.476h-3.214c-.296 0-.536-.214-.536-.476v-5.715c0-.263.24-.476.536-.476h.314l.378.337c.1.089.237.14.379.14h1.071c.142 0 .279-.051.38-.14l.378-.337h.314c.296 0 .535.213.536.476zM3.571 13.929h5.715c.788-.001 1.427-.689 1.428-1.538v-6.75c.001-.407-.15-.799-.418-1.086L8.473 2.593a1.371 1.371 0 0 0-1.01-.45H3.57c-.788 0-1.427.688-1.428 1.537v8.711c0 .849.64 1.537 1.428 1.538zM8.333 3.892l.756.813h-.756v-.813zM3.095 3.68c0-.283.214-.512.476-.512h3.81v2.05c0 .282.213.512.476.512h1.905v6.661c0 .283-.213.512-.476.513H3.57c-.262 0-.475-.23-.476-.513v-8.71z"/>
        <path fill="#000" d="M4.286 11.786h5.357v-1.072H4.286zM6.429 9.643h3.214V8.57H6.429zM4.286 9.643h1.071V8.57H4.286zM7.5 7.5h1.071V6.429H7.5zM4.286 7.5h2.143V6.429H4.286z"/>
        <g fill="#000">
            <path d="M4.286 5.472H6.8v-.995H4.286zM25.989 1.348l-.65-1.101a.504.504 0 0 0-.79-.101l-4.97 4.917-1.94.959a.501.501 0 0 0-.182.153l-.004.006-1.185 1.621a.493.493 0 0 0-.043.514l.687 1.358c.085.168.259.275.45.275h1.7l1.873 3.705a.503.503 0 0 0 .675.222l1.006-.497a.497.497 0 0 0 .278-.445v-2.488a.496.496 0 0 0-.053-.222l-.735-1.454 6.458-1.825a.5.5 0 0 0 .328-.293.493.493 0 0 0-.032-.436l-.888-1.505.074-.049c.88-.58 1.139-1.745.585-2.637a1.98 1.98 0 0 0-2.642-.677zm-8.317 7.606l-.41-.813.524-.717.774 1.53h-.888zm.867-2.265l1.112-.55 1.059 2.095-1.112.55-1.059-2.095zm3.349 5.937l-.278.138-1.562-3.09 1.112-.55.728 1.44v2.062zm-.24-4.761l-1.16-2.295L24.8 1.305l2.866 4.86-6.017 1.7zm6.13-5.311c.266.435.137.999-.29 1.28l-.024.016-.968-1.643a.966.966 0 0 1 1.283.347z"/>
        </g>
    </g>
</svg>
