<svg xmlns="http://www.w3.org/2000/svg" xmlns:xlink="http://www.w3.org/1999/xlink" width="31" height="20" viewBox="0 0 31 20">
    <defs>
        <path id="a" d="M0 0h23v10H0z"/>
    </defs>
    <g fill="none" fill-rule="evenodd">
        <g transform="translate(5 5)">
            <mask id="b" fill="#fff">
                <use xlink:href="#a"/>
            </mask>
            <path fill="#1D1D1B" d="M22.983 5.004a2.759 2.759 0 0 0-.018-.265.756.756 0 0 0-.066-.203c-.357-.724-1.007-1.14-1.781-1.14-.303 0-.611.064-.913.19a.873.873 0 0 0-.2.117 2.68 2.68 0 0 0-.133.113c-.067.056-.139.119-.199.163a1.913 1.913 0 0 0-.577.653l-.01-.002a36.546 36.546 0 0 0-1.6-.096.385.385 0 0 1-.269-.151 9.848 9.848 0 0 1-.726-1.394.537.537 0 0 0-.324-.295c-.121-.044-.24-.045-.297-.044l-.052-.002h-2.575a.659.659 0 0 0-.257.05.836.836 0 0 0-.355.331c-.227.404-.476.831-.76 1.307l-.01.016A40.72 40.72 0 0 1 10.134.443.666.666 0 0 0 9.498 0c-.28 0-.528.156-.616.387-.03.078-.044.176-.059.27-.01.075-.023.152-.04.204A43.796 43.796 0 0 0 7.05 7.498c-.275-.465-.553-.931-.83-1.395-.568-.951-1.157-1.937-1.718-2.913a.596.596 0 0 0-.528-.321.708.708 0 0 0-.47.187.848.848 0 0 0-.235.33c-.135.33-.273.656-.411.982l-.117.276a.273.273 0 0 1-.22.148H.631c-.415 0-.631.333-.631.661 0 .329.216.661.632.661h2.364l.034-.001a.661.661 0 0 0 .295-.041.751.751 0 0 0 .396-.428c.098-.235.196-.47.295-.702.351.596.706 1.19 1.06 1.783a216.15 216.15 0 0 1 1.594 2.7c.019.03.036.067.057.108.06.121.128.259.222.336a.624.624 0 0 0 .394.131.71.71 0 0 0 .715-.618c.288-2.202.804-4.497 1.535-6.826.464 1.08.994 2.188 1.616 3.388a.686.686 0 0 0 .152.196c.11.094.328.172.488.172.22 0 .41-.11.533-.305.365-.582.734-1.199 1.127-1.887a.336.336 0 0 1 .253-.149h1.588c.085 0 .195.072.233.15.222.459.487.914.784 1.352.018.027.036.05.068.087.044.052.132.16.254.222a.632.632 0 0 0 .285.065c.645.003 1.297.046 1.849.088.078.006.168.083.196.168.078.23.193.469.34.707a.7.7 0 0 0 .314.27l.01.008a2.19 2.19 0 0 0 1.337.467 2.194 2.194 0 0 0 .984-.236 1.62 1.62 0 0 0 .136-.067.71.71 0 0 0 .125-.095c.534-.514.785-1.201.727-1.988l-.009-.165zm-2.696.79c-.088-.191-.11-.35-.07-.503.074-.283.556-.449.826-.542a.268.268 0 0 0 .036-.016.558.558 0 0 1 .204.006.602.602 0 0 1 .307.182.46.46 0 0 1 .108.206c0 .037.003.075.009.113.041.27-.014.522-.166.75a.615.615 0 0 1-.304.207.904.904 0 0 1-.69-.111.768.768 0 0 1-.26-.292z" mask="url(#b)"/>
        </g>
        <rect width="29.7" height="18.7" x=".65" y=".65" stroke="#252525" stroke-width="1.3" rx="2"/>
    </g>
</svg>
