<svg xmlns="http://www.w3.org/2000/svg" xmlns:xlink="http://www.w3.org/1999/xlink" width="27" height="27" viewBox="0 0 27 27">
    <defs>
        <path id="a" d="M.003 0H27v27H.003z"/>
    </defs>
    <g fill="none" fill-rule="evenodd">
        <g>
            <mask id="b" fill="#fff">
                <use xlink:href="#a"/>
            </mask>
            <path fill="#0A090B" d="M1.502 19.828a3.273 3.273 0 0 1 3.27-3.27 3.273 3.273 0 0 1 3.269 3.27 3.273 3.273 0 0 1-3.27 3.27 3.273 3.273 0 0 1-3.27-3.27zM20.795 4.034a.528.528 0 0 1-1.055 0V1.582a.528.528 0 0 1 1.055 0v2.452zm-12.024 0a.528.528 0 0 1-1.054 0V1.582a.528.528 0 0 1 1.054 0v2.452zM24.363 2.32H21.85v-.738C21.85.71 21.14 0 20.268 0c-.873 0-1.582.71-1.582 1.582v.738h-8.86v-.738C9.826.71 9.116 0 8.244 0c-.872 0-1.582.71-1.582 1.582v.758a.526.526 0 0 0-.14-.02H4.42a2.64 2.64 0 0 0-2.636 2.637v8.982a.527.527 0 0 0 1.054 0V7.752H21.85a.527.527 0 0 0 0-1.055H2.838v-1.74c0-.872.71-1.582 1.582-1.582h2.102a.528.528 0 0 0 .14-.02v.68c0 .872.71 1.581 1.582 1.581.872 0 1.582-.71 1.582-1.582v-.659h8.86v.66c0 .872.71 1.581 1.582 1.581.872 0 1.582-.71 1.582-1.582v-.659h2.513c.873 0 1.582.71 1.582 1.582v20.039a.95.95 0 0 1-1.899 0v-1.364a.527.527 0 0 0-.527-.528h-6.134a.527.527 0 0 0 0 1.055h5.607v.837c0 .343.086.666.24.95H2.003a.95.95 0 0 1-.95-.95v-.837h11.804a.527.527 0 0 0 0-1.055H7.589a4.315 4.315 0 0 0 1.507-3.276 4.33 4.33 0 0 0-4.325-4.324 4.33 4.33 0 0 0-4.324 4.324c0 1.309.585 2.483 1.507 3.276H.527a.527.527 0 0 0-.527.528v1.364C0 26.101.899 27 2.004 27h22.992C26.1 27 27 26.1 27 24.996V4.957a2.64 2.64 0 0 0-2.637-2.637z" mask="url(#b)"/>
        </g>
        <path fill="#0A090B" d="M24.323 7.752a.531.531 0 0 0 .528-.527.531.531 0 0 0-.528-.528.531.531 0 0 0-.527.528.531.531 0 0 0 .527.527M15.003 23.258a.532.532 0 0 0-.154.373c0 .14.056.275.154.374a.53.53 0 0 0 .746 0 .534.534 0 0 0 .155-.374.53.53 0 0 0-.9-.373M11.93 17.086a.95.95 0 0 1 0 1.898.95.95 0 0 1 0-1.898zm0 2.953a2.006 2.006 0 0 0 2.005-2.004 2.006 2.006 0 0 0-2.004-2.004 2.006 2.006 0 0 0-2.004 2.004c0 1.105.899 2.004 2.004 2.004zM16.853 17.086a.95.95 0 0 1 0 1.898.95.95 0 0 1 0-1.898zm0 2.953a2.006 2.006 0 0 0 2.004-2.004 2.006 2.006 0 0 0-2.004-2.004 2.006 2.006 0 0 0-2.004 2.004c0 1.105.899 2.004 2.004 2.004zM21.775 17.086a.95.95 0 0 1 0 1.898.95.95 0 0 1 0-1.898zm0 2.953a2.006 2.006 0 0 0 2.004-2.004 2.006 2.006 0 0 0-2.004-2.004 2.006 2.006 0 0 0-2.004 2.004c0 1.105.899 2.004 2.004 2.004zM6.06 12.55a.95.95 0 0 1 1.898 0 .95.95 0 0 1-1.898 0zm2.953 0a2.006 2.006 0 0 0-2.004-2.003 2.006 2.006 0 0 0-2.004 2.004c0 1.105.9 2.004 2.004 2.004a2.006 2.006 0 0 0 2.004-2.004zM16.853 11.602a.95.95 0 0 1 0 1.898.95.95 0 0 1 0-1.898zm0 2.953a2.006 2.006 0 0 0 2.004-2.004 2.006 2.006 0 0 0-2.004-2.004 2.006 2.006 0 0 0-2.004 2.004c0 1.105.899 2.004 2.004 2.004zM21.775 11.602a.95.95 0 0 1 0 1.898.95.95 0 0 1 0-1.898zm0 2.953a2.006 2.006 0 0 0 2.004-2.004 2.006 2.006 0 0 0-2.004-2.004 2.006 2.006 0 0 0-2.004 2.004c0 1.105.899 2.004 2.004 2.004zM11.93 11.602a.95.95 0 0 1 0 1.898.95.95 0 0 1 0-1.898zm0 2.953a2.006 2.006 0 0 0 2.005-2.004 2.006 2.006 0 0 0-2.004-2.004 2.006 2.006 0 0 0-2.004 2.004c0 1.105.899 2.004 2.004 2.004zM3.814 21.379a.527.527 0 0 0 .746 0l2.09-2.09a.527.527 0 0 0-.746-.746L4.187 20.26l-.587-.587a.527.527 0 0 0-.746.746l.96.96"/>
    </g>
</svg>
