<svg xmlns="http://www.w3.org/2000/svg" xmlns:xlink="http://www.w3.org/1999/xlink" width="29" height="29" viewBox="0 0 29 29">
    <defs>
        <path id="a" d="M0 0h29v28.996H0z"/>
    </defs>
    <g fill="none" fill-rule="evenodd">
        <g>
            <mask id="b" fill="#fff">
                <use xlink:href="#a"/>
            </mask>
            <path fill="#000" d="M28.517 8.7h-.484V3.383a.483.483 0 0 0-.483-.483h-8.217V.483A.483.483 0 0 0 18.85 0h-8.7a.483.483 0 0 0-.483.483V2.9H1.45a.483.483 0 0 0-.483.483V8.7H.483A.483.483 0 0 0 0 9.183v1.934c0 .267.216.483.483.483h.484v16.917c0 .267.216.483.483.483h26.1a.483.483 0 0 0 .483-.483V11.6h.484a.483.483 0 0 0 .483-.483V9.183a.483.483 0 0 0-.483-.483zm-9.184 0h7.734V3.867h-7.734V8.7zm-8.7 0h7.734V.967h-7.734V8.7zm-8.7 0h7.734V3.867H1.933V8.7zM17.4 28.033h6.283v-3.866H17.4v3.866zm0-4.833h6.283v-4.833H17.4V23.2zm0-5.8h6.283v-2.417H17.4V17.4zm9.667 10.633H24.65V14.5a.483.483 0 0 0-.483-.483h-7.25a.483.483 0 0 0-.484.483v13.533h-14.5V11.6h25.134v16.433zm-26.1-17.4h27.066v-.966H.967v.966z" mask="url(#b)"/>
        </g>
        <path fill="#000" d="M4.833 24.65h8.7a.483.483 0 0 0 .484-.483V21.75a.483.483 0 0 0-.484-.483h-.483V14.5a.483.483 0 0 0-.483-.483H5.8a.483.483 0 0 0-.483.483v6.767h-.484a.483.483 0 0 0-.483.483v2.417c0 .267.216.483.483.483zm1.45-3.383h5.8v-6.284h-5.8v6.284zm-.966 2.416h7.733v-1.45H5.317v1.45zM22.233 21.267a.483.483 0 0 0 .484-.484V20.3a.483.483 0 0 0-.967 0v.483c0 .267.216.484.483.484zM16.917 3.383h-.967v-.966a.483.483 0 0 0-.483-.484h-1.934a.483.483 0 0 0-.483.484v.966h-.967a.483.483 0 0 0-.483.484V5.8c0 .267.216.483.483.483h.967v.967c0 .267.216.483.483.483h1.934a.483.483 0 0 0 .483-.483v-.967h.967A.483.483 0 0 0 17.4 5.8V3.867a.483.483 0 0 0-.483-.484zm-.484 1.934h-.966a.483.483 0 0 0-.484.483v.967h-.966V5.8a.483.483 0 0 0-.484-.483h-.966V4.35h.966a.483.483 0 0 0 .484-.483V2.9h.966v.967c0 .267.217.483.484.483h.966v.967z"/>
        <path fill="#000" d="M8.075 18.225l1.45-1.45a.483.483 0 0 0-.683-.683l-1.45 1.45a.483.483 0 1 0 .683.683zM10.292 17.058l-2.417 2.417a.483.483 0 1 0 .683.683l2.417-2.416a.483.483 0 0 0-.683-.684z"/>
    </g>
</svg>
