<svg xmlns="http://www.w3.org/2000/svg" xmlns:xlink="http://www.w3.org/1999/xlink" width="31" height="30" viewBox="0 0 31 30">
    <defs>
        <path id="a" d="M0 0h10.333v27.9H0z"/>
    </defs>
    <g fill="none" fill-rule="evenodd">
        <path fill="#000" d="M2.583 9.817A2.586 2.586 0 0 1 5.167 12.4v.517h2.066c1.142 0 2.067.925 2.067 2.066h1.602a2.588 2.588 0 0 1 2.531-2.066h6.2a2.588 2.588 0 0 1 2.532 2.066h1.085c.856 0 1.55.694 1.55 1.55v.517h1.033V15.5a2.583 2.583 0 0 1 5.167 0v5.167a1.55 1.55 0 0 1-1.55 1.55h-3.1v3.113a2.584 2.584 0 1 1-3.1 0v-3.113H21.7v.516a1.55 1.55 0 0 1-1.55 1.55h-9.817a1.55 1.55 0 0 1-1.55-1.55v-.516h-1.55v3.113a2.584 2.584 0 1 1-3.1 0v-3.113H1.55A1.55 1.55 0 0 1 0 20.667V12.4a2.586 2.586 0 0 1 2.583-2.583zm5.684 5.166c0-.57-.463-1.033-1.034-1.033H5.167v3.1h3.1v-2.067zm2.583 2.067H9.3v-1.033h1.55v1.033zm10.333 2.067h-9.3v-1.034h9.3v1.034zm0-2.067h-9.3v-1.033h9.3v1.033zm-1.55-3.1h-6.2a1.55 1.55 0 0 0-1.455 1.033h9.11a1.55 1.55 0 0 0-1.455-1.033zm4.134 2.583a.517.517 0 0 0-.517-.516h-1.033v1.033h1.55v-.517zm1.033 12.4a1.547 1.547 0 0 0 .888-2.816l-.114-.067a1.602 1.602 0 0 0-.366-.155l-.025-.008a1.46 1.46 0 0 0-.766 0c-.009 0-.017.005-.025.008-.128.036-.25.088-.366.155l-.114.067a1.548 1.548 0 0 0 .888 2.816zm-.517-4.081c.341-.07.693-.07 1.034 0v-2.635h-1.034v2.635zM9.817 22.733c0 .286.231.517.516.517h9.817a.517.517 0 0 0 .517-.517v-.516H9.817v.516zm-4.134 6.2a1.547 1.547 0 0 0 .889-2.816l-.115-.067a1.602 1.602 0 0 0-.366-.155l-.025-.008a1.46 1.46 0 0 0-.766 0c-.008 0-.017.005-.025.008-.128.036-.25.088-.365.155l-.115.067a1.548 1.548 0 0 0 .888 2.816zm0-4.133c.174 0 .347.017.517.052v-2.635H5.167v2.635c.17-.035.343-.052.516-.052zm-4.65-4.133c0 .285.232.516.517.516h27.9a.517.517 0 0 0 .517-.516V15.5a1.55 1.55 0 0 0-3.1 0v4.133a.517.517 0 0 1-1.034 0v-1.55h-3.616v1.034h1.033a.517.517 0 0 1 0 1.033H9.817a.517.517 0 0 1 0-1.033h1.033v-1.034H5.167v1.55a.517.517 0 0 1-1.034 0V12.4a1.55 1.55 0 0 0-3.1 0v8.267z"/>
        <path fill="#000" d="M24.283 27.383a.517.517 0 1 0 1.034 0 .517.517 0 0 0-1.034 0z"/>
        <g transform="matrix(-1 0 0 1 14.467 0)">
            <mask id="b" fill="#fff">
                <use xlink:href="#a"/>
            </mask>
            <path fill="#000" d="M9.3 27.383a.517.517 0 1 1-1.033 0 .517.517 0 0 1 1.033 0zM1.55 10.85h.517v.517a.517.517 0 0 0 1.033 0v-.517h.517a1.55 1.55 0 0 0 1.55-1.55V6.2a1.55 1.55 0 0 0-1.55-1.55H3.1V3.1h4.133v8.267a.517.517 0 0 0 1.034 0V2.583a.517.517 0 0 0-.517-.516H2.583a.517.517 0 0 1 0-1.034h6.2c.286 0 .517.232.517.517v7.233a.517.517 0 0 0 1.033 0V1.55A1.55 1.55 0 0 0 8.783 0h-6.2a1.547 1.547 0 0 0-.516 3.005V4.65H1.55A1.55 1.55 0 0 0 0 6.2v3.1c0 .856.694 1.55 1.55 1.55zM4.133 9.3a.517.517 0 0 1-.516.517H1.55a.517.517 0 0 1-.517-.517V8.267h3.1V9.3zm-3.1-3.1c0-.285.232-.517.517-.517h2.067c.285 0 .516.232.516.517v1.033h-3.1V6.2z" mask="url(#b)"/>
        </g>
        <path fill="#000" d="M27.9 8.783h-1.55v1.55c0 .571-.463 1.034-1.033 1.034H23.25c-.57 0-1.033-.463-1.033-1.034v-1.55h-1.55c-.571 0-1.034-.462-1.034-1.033V5.683c0-.57.463-1.033 1.034-1.033h1.55V3.1c0-.57.462-1.033 1.033-1.033h2.067c.57 0 1.033.462 1.033 1.033v1.55h1.55c.57 0 1.033.463 1.033 1.033V7.75c0 .57-.462 1.033-1.033 1.033zm0-3.1h-2.067a.517.517 0 0 1-.516-.516V3.1H23.25v2.067a.517.517 0 0 1-.517.516h-2.066V7.75h2.066c.286 0 .517.231.517.517v2.066h2.067V8.267c0-.286.231-.517.516-.517H27.9V5.683z"/>
    </g>
</svg>
