<svg xmlns="http://www.w3.org/2000/svg" width="25" height="29" viewBox="0 0 25 29">
    <g fill="#000" fill-rule="evenodd">
        <path d="M21.737 13.832v-.852c0-.96-.148-1.903-.44-2.808l3.282-2.643a1.03 1.03 0 0 0 .33-1.157 1.03 1.03 0 0 0-.982-.695h-1.414L24.69 1.84a1.22 1.22 0 0 0-.007-1.228A1.22 1.22 0 0 0 23.617 0h-4.02a1.24 1.24 0 0 0-1.109.693l-1.961 4.029a9.06 9.06 0 0 0-3.936-.889 9.145 9.145 0 0 0-5.95 2.2.417.417 0 1 0 .542.633 8.311 8.311 0 0 1 8.978-1.194l-.696 1.43c-.155.32-.136.69.052.992.189.301.514.481.87.481h1.334l-1.218 3.233c-.164.434-.021.908.354 1.18a1.012 1.012 0 0 0 1.231-.032l2.508-2.02c.204.727.307 1.48.307 2.244v.868c-2.855-.037-6.79-.439-10.1-2.05-2.069-1.006-2.922-2.023-2.93-2.032a.417.417 0 0 0-.74.263c0 .728-.36 1.532-1.013 2.263a5.77 5.77 0 0 1-1.842 1.363v-.675c0-1.839.589-3.581 1.7-5.039a.417.417 0 1 0-.662-.506 9.064 9.064 0 0 0-1.871 5.545v.854A3.28 3.28 0 0 0 0 17.107a3.281 3.281 0 0 0 3.56 3.264c.695 4.358 4.48 7.7 9.03 7.7.585 0 1.17-.056 1.737-.166a9.191 9.191 0 0 0 5.942-4.009.417.417 0 1 0-.7-.454 8.353 8.353 0 0 1-5.4 3.645c-.515.1-1.046.15-1.578.15-4.584 0-8.313-3.73-8.313-8.312V14.56a6.487 6.487 0 0 0 2.464-1.713c.549-.614.926-1.285 1.106-1.95.498.426 1.317 1.024 2.528 1.62 1.95.96 5.345 2.1 10.527 2.164v4.243c0 1.094-.209 2.158-.622 3.16a.417.417 0 0 0 .771.318 9.064 9.064 0 0 0 .57-2.02l.053.001a3.28 3.28 0 0 0 3.277-3.277 3.28 3.28 0 0 0-3.215-3.275zm-4.171-1.726c-.094.076-.178.036-.22.006-.042-.03-.105-.098-.063-.21l1.43-3.797a.416.416 0 0 0-.39-.563h-1.937a.186.186 0 0 1-.162-.09.185.185 0 0 1-.01-.184l3.024-6.21a.401.401 0 0 1 .358-.224h4.022c.207 0 .31.138.344.198.035.06.105.217.002.397l-2.529 4.46a.417.417 0 0 0 .363.622h2.129c.132 0 .18.097.195.138a.198.198 0 0 1-.066.23l-6.49 5.227zM3.277 19.551a2.446 2.446 0 0 1-2.443-2.444 2.446 2.446 0 0 1 2.611-2.439v1.398c-.57-.012-1.283.184-1.621.96a.416.416 0 1 0 .765.333c.178-.411.574-.474.856-.46v2.025c0 .208.008.414.021.619a2.521 2.521 0 0 1-.189.008zm18.439-.002c.014-.207.021-.415.021-.625v-2.026c.282-.013.677.05.856.46a.417.417 0 1 0 .765-.331c-.338-.777-1.051-.973-1.62-.961v-1.4a2.446 2.446 0 0 1 2.38 2.44 2.446 2.446 0 0 1-2.402 2.443z"/>
        <path d="M10.483 22.674a2.985 2.985 0 0 1 4.216 0 .416.416 0 1 0 .59-.589 3.82 3.82 0 0 0-5.396 0 .417.417 0 1 0 .59.59zM7.672 18.856a.417.417 0 0 0 .52.276l2.204-.678a.418.418 0 0 0 .172-.694l-1.483-1.482a.417.417 0 0 0-.59.589l.994.993-1.541.475a.417.417 0 0 0-.276.52zM17.053 19.15a.417.417 0 0 0 .122-.815l-1.541-.475.993-.993a.417.417 0 0 0-.59-.59l-1.483 1.483a.417.417 0 0 0 .173.694l2.203.678a.42.42 0 0 0 .123.018zM2.555 5.075l-1.612.372a.417.417 0 0 0-.253.637l1.695 2.542a.417.417 0 1 0 .693-.462l-1.36-2.04 1.616-.373a.417.417 0 0 0 .251-.64L1.24 1.637a.417.417 0 1 0-.69.466l2.005 2.972zM5.715 5.136a.417.417 0 1 0 .766-.33l-.672-1.563 1.1-.05a.417.417 0 0 0 .364-.583L6.413.641a.417.417 0 0 0-.764.334l.617 1.413-1.097.05a.417.417 0 0 0-.364.58l.91 2.118z"/>
    </g>
</svg>
