<svg xmlns="http://www.w3.org/2000/svg" xmlns:xlink="http://www.w3.org/1999/xlink" width="28" height="28" viewBox="0 0 28 28">
    <defs>
        <path id="a" d="M.003 0H28v28H.003z"/>
    </defs>
    <g fill="none" fill-rule="evenodd">
        <path fill="#0A0B09" d="M12.415 19.995l-4.567-6.77 6.797.34-2.23 6.43zm3.52-7.3a.583.583 0 0 0-.455-.256l-8.74-.438a.584.584 0 0 0-.512.909l5.872 8.704a.584.584 0 0 0 1.034-.135l2.868-8.266a.583.583 0 0 0-.068-.518z"/>
        <g transform="rotate(-34 14 14)">
            <mask id="b" fill="#fff">
                <use xlink:href="#a"/>
            </mask>
            <path fill="#0A0B09" d="M12.6 8.283a.583.583 0 0 0-.7.934L18.278 14 11.9 18.783a.582.582 0 1 0 .7.934l7-5.25a.583.583 0 0 0 0-.934l-7-5.25" mask="url(#b)"/>
            <path fill="#0A0B09" d="M14 26.833C6.924 26.833 1.167 21.076 1.167 14 1.167 6.924 6.924 1.167 14 1.167c7.076 0 12.833 5.757 12.833 12.833 0 7.076-5.757 12.833-12.833 12.833zM14 0C6.28 0 0 6.28 0 14s6.28 14 14 14 14-6.28 14-14S21.72 0 14 0z" mask="url(#b)"/>
        </g>
    </g>
</svg>
