<svg xmlns="http://www.w3.org/2000/svg" xmlns:xlink="http://www.w3.org/1999/xlink" width="28" height="28" viewBox="0 0 28 28">
    <defs>
        <path id="a" d="M0 0h28v27.995H0z"/>
    </defs>
    <g fill="none" fill-rule="evenodd">
        <path fill="#000" d="M13.067 12.6V9.8H15.4v-.933H7.467V7H15.4v-.933H3.267a.467.467 0 0 0-.467.466v16.334a.467.467 0 0 0 .467.466H11.2V22.4H7.467v-1.867H11.2V19.6H7.467v-7h5.6zm-5.6-.933h4.666V9.8H7.467v1.867zm-3.734 0h2.8V7h-2.8v4.667zm0 10.733h2.8v-1.867h-2.8V22.4zm0-2.8h2.8v-7h-2.8v7zM3.267 4.667h1.4v-.934h-1.4zM5.6 4.667h3.267v-.934H5.6zM3.267 25.667h1.866v-.934H3.267z"/>
        <g>
            <mask id="b" fill="#fff">
                <use xlink:href="#a"/>
            </mask>
            <path fill="#000" d="M6.067 25.667h1.866v-.934H6.067z" mask="url(#b)"/>
            <path fill="#000" d="M27.067 24.54v-6.807A6.077 6.077 0 0 0 22.4 11.83v-.785a7.7 7.7 0 0 0 .467-2.645.467.467 0 0 0-.467-.467V6.84a2.318 2.318 0 0 0-.683-1.65L17.21.683A2.318 2.318 0 0 0 15.56 0H2.333A2.336 2.336 0 0 0 0 2.333v23.334A2.336 2.336 0 0 0 2.333 28h25.2a.467.467 0 0 0 .467-.467v-1.206a2.046 2.046 0 0 0-.603-1.457l-.33-.33zM18.05 11.668l-.297-.741a6.757 6.757 0 0 1-.47-2.06h4.635a6.757 6.757 0 0 1-.471 2.06l-.297.741a6.44 6.44 0 0 0-.15-.001h-2.8l-.15.001zM11.2 26.327v.74H2.333c-.773-.001-1.399-.627-1.4-1.4V2.333c.001-.773.627-1.399 1.4-1.4H15.56c.103 0 .206.012.307.034V4.2A2.336 2.336 0 0 0 18.2 6.533h1.4V5.6h-1.4c-.773 0-1.4-.627-1.4-1.4V1.593l4.257 4.257c.263.262.41.618.41.99v1.093H16.8a.467.467 0 0 0-.467.467c0 .984.187 1.96.554 2.873l.198.497a6.077 6.077 0 0 0-4.952 5.963v6.807l-.33.33c-.387.386-.605.91-.603 1.457zm15.867.74H12.133v-.74c0-.3.118-.586.33-.797l.467-.467a.467.467 0 0 0 .137-.33v-7A5.14 5.14 0 0 1 18.2 12.6H21a5.14 5.14 0 0 1 5.133 5.133v6.534h-1.866v.933h2.14l.33.33c.212.21.33.498.33.797v.74z" mask="url(#b)"/>
        </g>
        <path fill="#000" d="M20.273 19.6h-.933a.7.7 0 0 1 0-1.4h1.867v-.933h-.934v-.934h-.933v.934a1.633 1.633 0 0 0 0 3.266h.933a.7.7 0 1 1 0 1.4H17.94v.934h1.4v.743h.933v-.743a1.633 1.633 0 1 0 0-3.267z"/>
    </g>
</svg>
