<svg xmlns="http://www.w3.org/2000/svg" width="27" height="22" viewBox="0 0 27 22">
    <g fill="none" fill-rule="evenodd">
        <path fill="#FFF" d="M4.5 0H.9C.403 0 0 .4 0 .894v3.577c0 .494.403.894.9.894s.9-.4.9-.894V1.788h2.7c.497 0 .9-.4.9-.894A.897.897 0 0 0 4.5 0M26.1 16.096c-.497 0-.9.4-.9.894v2.683h-2.7c-.497 0-.9.4-.9.894s.403.895.9.895h3.6c.497 0 .9-.401.9-.895V16.99a.897.897 0 0 0-.9-.894M26.1 0h-3.6c-.497 0-.9.4-.9.894s.403.894.9.894h2.7v2.683c0 .494.403.894.9.894s.9-.4.9-.894V.894A.897.897 0 0 0 26.1 0M4.5 19.673H1.8V16.99a.897.897 0 0 0-.9-.894c-.497 0-.9.4-.9.894v3.577c0 .494.403.895.9.895h3.6c.497 0 .9-.401.9-.895a.897.897 0 0 0-.9-.894M3.462 18h2.076V3.462H3.462zM6.923 13.846H9V3.462H6.923zM11.077 13.846h2.077V3.462h-2.077zM14.538 18h2.077V3.462h-2.077zM18 13.846h2.077V3.462H18zM21.462 18h2.076V3.462h-2.076zM6.923 18H9v-2.077H6.923zM11.077 18h2.077v-2.077h-2.077zM18 18h2.077v-2.077H18z"/>
    </g>
</svg>
