<svg xmlns="http://www.w3.org/2000/svg" xmlns:xlink="http://www.w3.org/1999/xlink" width="28" height="30" viewBox="0 0 28 30">
    <defs>
        <path id="a" d="M0 0h27.018v29.47H0z"/>
        <path id="c" d="M.021.02h21.961v17.046H.022z"/>
    </defs>
    <g fill="none" fill-rule="evenodd">
        <g>
            <mask id="b" fill="#fff">
                <use xlink:href="#a"/>
            </mask>
            <path fill="#000" d="M0 20.632a2.46 2.46 0 0 0 2.456 2.456h7.688L8.48 28.49H6.877v.983H19.65v-.983H9.507l1.772-5.75a.49.49 0 0 0-.472-.636h-8.35c-.815 0-1.475-.66-1.475-1.473v-.983h9.334v-.982H.982V6.386c0-.814.66-1.474 1.474-1.474v12.772h.983V1.964c0-.542.44-.982.982-.982h14.737v1.965c0 1.085.88 1.965 1.965 1.965h1.965v8.842h.982V4.912h.491c.814 0 1.474.66 1.474 1.474v14.246c0 .422-.182.825-.5 1.105l.326.368-.326-.368a1.51 1.51 0 0 1-.237.172l.491.85a2.456 2.456 0 0 0 1.229-2.127V6.386A2.459 2.459 0 0 0 24.56 3.93h-.779L19.997.144a.492.492 0 0 0-.147-.098L19.809.03a.494.494 0 0 0-.134-.027c-.008 0-.017-.004-.026-.004H4.421C3.336 0 2.456.88 2.456 1.965V3.93A2.46 2.46 0 0 0 0 6.386v14.246zM20.14 1.678l2.253 2.252h-1.27a.982.982 0 0 1-.983-.983v-1.27z" mask="url(#b)"/>
        </g>
        <path fill="#000" d="M4.421 2.947h.983v-.982H4.42zM6.386 2.947h.982v-.982h-.982zM8.35 2.947h.983v-.982h-.982zM22.105 12.772V6.386a.491.491 0 0 0-.491-.491H4.912a.491.491 0 0 0-.49.491v10.807c0 .271.219.491.49.491h5.895v-.982H5.404v-3.235L9.37 9.5l4.568 3.655a.491.491 0 0 0 .593.016l3.122-2.23 2.161 1.894.648-.74-2.456-2.149a.491.491 0 0 0-.61-.03l-3.136 2.24L9.638 8.46a.491.491 0 0 0-.654.036l-3.58 3.582v-5.2h15.719v5.895h.982z"/>
        <path fill="#000" d="M12.772 9.333a1.474 1.474 0 1 0 2.947 0 1.474 1.474 0 0 0-2.947 0zm1.965 0a.491.491 0 1 1-.983 0 .491.491 0 0 1 .983 0zM8.495 11.933l.982-.982.695.695-.982.982z"/>
        <g transform="translate(6.018 12.404)">
            <mask id="d" fill="#fff">
                <use xlink:href="#c"/>
            </mask>
            <path fill="#000" d="M.021 1.986L1.987.02l.694.694L.716 2.681zM18.162 11.081a6.902 6.902 0 1 0-2.058 2.28l3.261 3.26a1.533 1.533 0 0 0 2.168-2.168l-3.371-3.372zm-6.004 2.55a5.895 5.895 0 1 1 5.895-5.894 5.901 5.901 0 0 1-5.895 5.895zm8.291 2.457a.547.547 0 0 1-.39-.161l-3.192-3.193c.268-.253.515-.527.74-.82l3.23 3.233a.55.55 0 0 1-.388.94z" mask="url(#d)"/>
        </g>
        <path fill="#000" d="M18.175 15.228a4.912 4.912 0 1 0 0 9.824 4.912 4.912 0 0 0 0-9.824zm0 8.842a3.93 3.93 0 1 1 0-7.86 3.93 3.93 0 0 1 0 7.86z"/>
        <path fill="#000" d="M15.228 20.14h.983c0-1.085.88-1.965 1.964-1.965v-.982a2.95 2.95 0 0 0-2.947 2.947zM4.421 4.912h13.754V3.93H4.421z"/>
    </g>
</svg>
