<svg xmlns="http://www.w3.org/2000/svg" width="23" height="23" viewBox="0 0 23 23">
    <g fill="#FFF" fill-rule="evenodd">
        <path d="M18.552 17.894a.449.449 0 0 0-.448.449v3.31a.45.45 0 0 1-.448.449H1.344a.45.45 0 0 1-.448-.45V1.348a.45.45 0 0 1 .448-.45h16.312a.45.45 0 0 1 .448.45v4.885a.449.449 0 1 0 .896 0V1.348C19 .605 18.397 0 17.656 0H1.344C.604 0 0 .605 0 1.348v20.304C0 22.395.603 23 1.344 23h16.312c.74 0 1.344-.605 1.344-1.348v-3.31c0-.247-.2-.448-.448-.448"/>
        <path d="M8.11 8.493A2.16 2.16 0 0 1 10 7.39a2.16 2.16 0 0 1 1.89 1.102c-.525.4-1.18.637-1.89.637s-1.365-.237-1.89-.637zm1.194-2.667v-.283a.696.696 0 0 1 1.392 0v.283a.696.696 0 0 1-1.392 0zM10 2.87A3.134 3.134 0 0 1 13.13 6c0 .694-.227 1.336-.61 1.856a3.016 3.016 0 0 0-1.282-1.074c.205-.265.327-.596.327-.956v-.283c0-.863-.702-1.565-1.565-1.565s-1.565.702-1.565 1.565v.283c0 .36.122.691.327.956-.516.228-.96.598-1.281 1.074A3.113 3.113 0 0 1 6.87 6 3.134 3.134 0 0 1 10 2.87zM14 6c0-2.206-1.794-4-4-4S6 3.794 6 6a3.99 3.99 0 0 0 1.302 2.95A3.984 3.984 0 0 0 10 10a3.985 3.985 0 0 0 2.744-1.093A3.989 3.989 0 0 0 14 6zM11.595 20h-2.19c-.223 0-.405.224-.405.5s.182.5.405.5h2.19c.223 0 .405-.224.405-.5s-.182-.5-.405-.5M11.568 17H5.432c-.239 0-.432.224-.432.5s.193.5.432.5h6.136c.239 0 .432-.224.432-.5s-.193-.5-.432-.5M11.568 15H5.432c-.239 0-.432.224-.432.5s.193.5.432.5h6.136c.239 0 .432-.224.432-.5s-.193-.5-.432-.5M3.854 12.146a.503.503 0 0 0-.708 0 .504.504 0 0 0 0 .707A.504.504 0 0 0 3.5 13a.504.504 0 0 0 .5-.5.504.504 0 0 0-.146-.354M3.854 15.146A.504.504 0 0 0 3.5 15a.504.504 0 0 0-.5.5.504.504 0 0 0 .5.5.504.504 0 0 0 .5-.5.504.504 0 0 0-.146-.354M3.5 17a.504.504 0 0 0-.5.5.504.504 0 0 0 .5.5.503.503 0 0 0 .5-.5.504.504 0 0 0-.5-.5M11.874 12.537H5.452a.45.45 0 0 0-.452.448.45.45 0 0 0 .452.448h6.422c.25 0 .453-.2.453-.448a.45.45 0 0 0-.453-.448M21.962 8.404l-.446.765-1.723-.985.446-.765a.997.997 0 0 1 1.823.238.97.97 0 0 1-.1.747zm-5.465 9.372l-1.724-.985 4.568-7.832 1.723.985-4.567 7.832zm-1.969-.091l1.31.748-1.519 1.107.21-1.855zM22.05 6.283a1.904 1.904 0 0 0-1.441-.188c-.49.13-.9.441-1.154.876l-5.691 9.76a.445.445 0 0 0-.058.174l-.4 3.553a.447.447 0 0 0 .449.497c.095 0 .189-.03.268-.087l2.907-2.12a.449.449 0 0 0 .124-.136l5.691-9.76a1.873 1.873 0 0 0-.695-2.569z"/>
    </g>
</svg>
