<svg xmlns="http://www.w3.org/2000/svg" width="23" height="24" viewBox="0 0 23 24">
    <path fill="#FFF" fill-rule="evenodd" d="M22.508.578H6.058a.36.36 0 0 0-.359.36v1.437H3.032a.362.362 0 0 0-.271.122.363.363 0 0 0-.085.286l.14 1.032H.358a.36.36 0 0 0-.344.46l5.472 18.76c.045.159.19.26.346.26h16.675a.36.36 0 0 0 .36-.36V.94a.36.36 0 0 0-.36-.36zM5.7 3.094v16.662L3.444 3.094h2.255zm-2.787 1.44l1.796 13.26-3.87-13.26h2.074zm3.506 18.042h15.73V1.298H6.419v21.278zM12.71 4.14H6.992V2.52h5.717l.001 1.619zm8.9 0h-5.718V2.52h5.718V4.14zm-8.531-.81a1.205 1.205 0 1 1 2.41 0 1.205 1.205 0 0 1-2.41 0zm7.684 8.77h-4.871V6.632h4.87l.001 5.467zM7.577 7.435h5.987v-.599H7.577v.6zm0 2.302h5.987v-.6H7.577v.6zm.067 2.354h5.987v-.6H7.644v.6zm-.067 2.37h13.186v-.598H7.577v.598zm0 2.368h13.186v-.6H7.577v.6zm0 2.338h13.186v-.6H7.577v.6z"/>
</svg>
