<svg xmlns="http://www.w3.org/2000/svg" xmlns:xlink="http://www.w3.org/1999/xlink" width="19" height="28" viewBox="0 0 19 28">
    <defs>
        <path id="a" d="M0 0h19v27.14H0z"/>
    </defs>
    <g fill="none" fill-rule="evenodd">
        <g>
            <mask id="b" fill="#fff">
                <use xlink:href="#a"/>
            </mask>
            <path fill="#FFF" d="M18.095 26.238H.905V4.524h5.428V6.79a.452.452 0 0 0 .724.362 4.053 4.053 0 0 1 4.883 0 .46.46 0 0 0 .122.064c.014.005.03.007.045.01a.475.475 0 0 0 .088.014c.007 0 .012.004.019.004.006 0 .013-.005.02-.005a.447.447 0 0 0 .181-.043.452.452 0 0 0 .252-.406V4.524h5.428v21.714zM7.238 2.714h4.524v3.257a4.969 4.969 0 0 0-4.524 0V2.714zm1.357-1.357c0-.25.203-.452.453-.452h.904c.25 0 .453.202.453.452v.453h-1.81v-.453zm9.953 2.262h-5.881V2.262a.452.452 0 0 0-.453-.452h-.904v-.453C11.31.607 10.702 0 9.952 0h-.904C8.298 0 7.69.608 7.69 1.357v.453h-.904a.452.452 0 0 0-.453.452v1.357H.453A.452.452 0 0 0 0 4.071v22.62c0 .25.203.452.452.452h18.096c.25 0 .452-.203.452-.453V4.071a.452.452 0 0 0-.452-.452z" mask="url(#b)"/>
        </g>
        <path fill="#FFF" d="M9.5 11.31a.452.452 0 1 0 0 .904.452.452 0 0 0 0-.904zm0 1.809a1.357 1.357 0 1 1 0-2.714 1.357 1.357 0 0 1 0 2.714z"/>
        <path fill="#FFF" d="M12.667 16.286h-.453v-.453a2.265 2.265 0 0 0-2.262-2.262h-.904a2.265 2.265 0 0 0-2.262 2.262v.453h-.453V9.952h6.334v6.334zm-4.977 0v-.453c0-.75.608-1.357 1.358-1.357h.904c.75 0 1.358.608 1.358 1.357v.453H7.69zm5.429-7.238H5.881a.452.452 0 0 0-.452.452v7.238c0 .25.202.452.452.452h7.238c.25 0 .452-.202.452-.452V9.5a.452.452 0 0 0-.452-.452zM14.024 19.905H4.976a.452.452 0 0 1 0-.905h9.048a.452.452 0 0 1 0 .905M14.024 21.714H4.976a.452.452 0 0 1 0-.904h9.048a.452.452 0 0 1 0 .904M14.024 23.524H4.976a.452.452 0 0 1 0-.905h9.048a.452.452 0 0 1 0 .905"/>
    </g>
</svg>
