<svg xmlns="http://www.w3.org/2000/svg" width="28" height="28" viewBox="0 0 28 28">
    <g fill="#FFF" fill-rule="evenodd">
        <path d="M27.067 1.342c0-.74-.596-1.342-1.33-1.342H8.45C7.716 0 7.12.601 7.12 1.342c0 .625.425 1.146.997 1.296V18.94l.998-1.008 1.995 2.015 1.993-2.015 1.995 2.015 1.995-2.015 1.995 2.015 1.995-2.015 1.994 2.015 1.995-2.015.998 1.008V2.638c.572-.15.997-.671.997-1.296zM25.404 17.32l-.332-.336-1.995 2.014-1.994-2.014-1.995 2.014-1.995-2.014-1.995 2.014-1.995-2.014-1.993 2.014-1.995-2.014-.333.336V1.679h16.622v15.64zm.666-15.394v-.919H8.117v.919A.673.673 0 0 1 8.449.672h17.288a.673.673 0 1 1 .333 1.253z"/>
        <path d="M22.213 13.6h-4.8c-.176 0-.32.203-.32.454 0 .25.144.453.32.453h4.8c.177 0 .32-.204.32-.453 0-.25-.143-.454-.32-.454zM23.573 13.725a.474.474 0 0 0-.133.326c0 .118.05.236.133.322a.471.471 0 0 0 .32.134.48.48 0 0 0 .323-.134.49.49 0 0 0 .13-.322.484.484 0 0 0-.13-.326.476.476 0 0 0-.643 0zM23.12 9.067h-4.8c-.176 0-.32.201-.32.454 0 .25.144.452.32.452h4.8c.176 0 .32-.201.32-.452 0-.253-.144-.454-.32-.454zM23.137 10.88h-3.021c-.167 0-.303.204-.303.453 0 .25.136.454.303.454h3.021c.167 0 .303-.204.303-.454s-.136-.453-.303-.453zM17.093 11.333c0 .25.204.454.454.454h.906a.454.454 0 0 0 0-.907h-.906a.454.454 0 0 0-.454.453zM22.533 6.8c0-.25-.143-.453-.32-.453h-4.8c-.176 0-.32.203-.32.453s.144.453.32.453h4.8c.177 0 .32-.203.32-.453zM23.573 6.473a.464.464 0 0 0-.133.324c0 .118.05.236.133.322a.472.472 0 0 0 .32.134.471.471 0 0 0 .323-.134.49.49 0 0 0 .13-.322.488.488 0 0 0-.13-.324.472.472 0 0 0-.643 0zM17.867 9.842A.473.473 0 0 0 18 9.52a.473.473 0 0 0-.133-.325.467.467 0 0 0-.64 0 .473.473 0 0 0-.134.325c0 .122.051.236.133.323a.471.471 0 0 0 .32.131.471.471 0 0 0 .321-.13z"/>
        <path d="M18.774 11.655a.462.462 0 0 0 0-.648.467.467 0 0 0-.641 0 .475.475 0 0 0-.133.323c0 .118.05.238.133.325a.48.48 0 0 0 .32.132.48.48 0 0 0 .32-.132zM12.923 7.013v-.349c0-.175-.163-.317-.363-.317-.2 0-.363.142-.363.317v.35a1.874 1.874 0 0 0-1.022.53c-.221.23-.324.523-.289.826.037.31.22.598.503.79l.808.55v1.727c-.422-.132-.726-.48-.726-.894 0-.175-.161-.318-.361-.318-.2 0-.363.143-.363.318 0 .765.623 1.407 1.45 1.554v.279c0 .175.163.317.363.317.2 0 .363-.142.363-.317v-.28a1.876 1.876 0 0 0 1.021-.53 1 1 0 0 0 .287-.827 1.127 1.127 0 0 0-.5-.788l-.808-.55V7.675c.42.131.724.48.724.894 0 .175.163.317.363.317.2 0 .363-.142.363-.317 0-.767-.625-1.407-1.45-1.556zm.363 3.438a.51.51 0 0 1 .225.355.421.421 0 0 1-.12.352 1.1 1.1 0 0 1-.468.277v-1.23l.363.246zM11.834 8.66a.506.506 0 0 1-.225-.356.426.426 0 0 1 .119-.35c.127-.13.29-.222.469-.278v1.23l-.363-.246zM20.72 4.08a.454.454 0 1 1-.908-.002.454.454 0 0 1 .908.002z"/>
        <path d="M19.813 4.08a.454.454 0 1 1-.908-.002.454.454 0 0 1 .908.002zM22.533 4.08a.454.454 0 1 1-.907 0 .454.454 0 0 1 .907 0zM18 4.08a.452.452 0 1 1-.907 0 .453.453 0 1 1 .907 0zM24.347 4.08a.453.453 0 1 1-.906 0 .453.453 0 0 1 .906 0zM14.373 4.08a.454.454 0 1 1-.908-.002.454.454 0 0 1 .908.002zM16.187 4.08a.454.454 0 1 1-.908 0 .454.454 0 0 1 .908 0z"/>
        <path d="M17.093 4.08a.453.453 0 1 1-.905 0 .453.453 0 0 1 .905 0zM24.347 4.08a.452.452 0 1 1-.907 0 .453.453 0 1 1 .907 0zM12.56 4.08a.454.454 0 1 1-.908-.002.454.454 0 0 1 .908.002z"/>
        <path d="M11.653 4.08a.452.452 0 1 1-.906 0 .453.453 0 1 1 .906 0z"/>
        <path d="M10.747 4.08a.453.453 0 1 1-.906 0 .453.453 0 0 1 .906 0z"/>
        <g>
            <path d="M8.16 18.32C2.807 18.32 0 22.233 0 22.854c0 .62 2.807 4.533 8.16 4.533s8.16-3.913 8.16-4.533c0-.621-2.807-4.534-8.16-4.534zm0 8.02c-2.003 0-3.627-1.56-3.627-3.486 0-1.927 1.624-3.488 3.627-3.488 2.003 0 3.627 1.561 3.627 3.488 0 1.925-1.624 3.486-3.627 3.486zm1.813-3.486c0 .963-.811 1.743-1.813 1.743-1.002 0-1.813-.78-1.813-1.743 0-.963.811-1.744 1.813-1.744.541 0-.332 1.382 0 1.744.282.307 1.813-.443 1.813 0z"/>
        </g>
    </g>
</svg>
