<svg xmlns="http://www.w3.org/2000/svg" xmlns:xlink="http://www.w3.org/1999/xlink" width="26" height="26" viewBox="0 0 26 26">
    <defs>
        <path id="a" d="M.003.002H26V26H.003z"/>
    </defs>
    <g fill="none" fill-rule="evenodd">
        <mask id="b" fill="#fff">
            <use xlink:href="#a"/>
        </mask>
        <path fill="#FFF" d="M8.265 20.51a.5.5 0 0 1-.282-.087.486.486 0 0 1-.187-.228.477.477 0 0 1-.04-.194.5.5 0 0 1 .087-.281.486.486 0 0 1 .227-.187.492.492 0 0 1 .294-.03.477.477 0 0 1 .182.076.486.486 0 0 1 .187.228.53.53 0 0 1 .03.293.513.513 0 0 1-.4.4.5.5 0 0 1-.098.01" mask="url(#b)"/>
        <path fill="#FFF" d="M21.658 21.892l-7.816 2.798a.626.626 0 0 0-.044.018c-1.088.5-2.123.2-2.529.043a29.417 29.417 0 0 1-2.948-1.506c-.831-.48-1.231-.71-2.362-.803v-4.09c.481-.79 1.414-1.597 2.42-1.597 1.727 0 2.458 1.122 2.487 1.168.062.1.157.177.27.215l4.035 1.37c.645.241.985.793.829 1.344a.983.983 0 0 1-.47.594.983.983 0 0 1-.746.089l-4.55-1.442a.508.508 0 1 0-.307.968l4.558 1.444.015.005a1.994 1.994 0 0 0 1.524-.177 1.992 1.992 0 0 0 .984-1.327l3.812-1.056c.551-.188 1.274-.256 1.596.485.333.87-.533 1.35-.758 1.457zM4.035 23.098h.908v-4.44h-.908v4.44zm-3.02.946H3.02v-5.387H1.016v5.387zm22.344-3.985a.493.493 0 0 0-.006-.015c-.468-1.094-1.564-1.498-2.86-1.055l-3.539.978c-.204-.62-.715-1.146-1.436-1.414a.602.602 0 0 0-.013-.005l-3.89-1.32c-.323-.418-1.337-1.489-3.235-1.489-1.327 0-2.5.91-3.172 1.903h-4.7a.508.508 0 0 0-.508.507v6.403c0 .28.227.507.508.507h3.02c.28 0 .507-.227.507-.507v-.439H5.45c.28 0 .508-.227.508-.508v-.146c.825.072 1.097.229 1.855.666a30.731 30.731 0 0 0 3.073 1.567c.304.12.9.308 1.633.308.511 0 1.09-.091 1.683-.36l7.82-2.8a.496.496 0 0 0 .04-.017c.748-.344 1.862-1.313 1.296-2.764zM17.735 7.288a.5.5 0 0 1-.281-.086.486.486 0 0 1-.187-.228.477.477 0 0 1-.04-.194.5.5 0 0 1 .086-.282.486.486 0 0 1 .228-.187.503.503 0 0 1 .616.187.481.481 0 0 1 .077.183.5.5 0 0 1-.077.38.486.486 0 0 1-.227.188.537.537 0 0 1-.195.039" mask="url(#b)"/>
        <path fill="#FFF" d="M22.98 8.125h2.004V2.738h-2.003v5.387zm-1.923 0h.908v-4.44h-.908v4.44zm-3.437 1.902c-.188 0-.365-.014-.53-.038h-.002c-1.096-.16-1.686-.783-1.88-1.03l-.062-.082a.506.506 0 0 0-.28-.233l-4.037-1.37c-.644-.242-.985-.794-.829-1.344v-.002a.983.983 0 0 1 .47-.592.983.983 0 0 1 .746-.09l4.55 1.442a.508.508 0 1 0 .306-.968l-3.618-1.146-.032-.032-1.874-1.874 1.61-.577a.563.563 0 0 0 .018-.006l.005-.003a.487.487 0 0 0 .02-.008c1.09-.5 2.124-.201 2.53-.044 1.532.69 2.35 1.162 2.948 1.506.831.48 1.231.71 2.362.804v4.09c-.481.789-1.414 1.597-2.42 1.597zm-5.94 5.083l-1.157-1.157a2.211 2.211 0 0 1 2.315 0L11.68 15.11zM3.894 5.008c.213.344.327.741.327 1.157 0 .416-.114.813-.327 1.157L2.736 6.165l1.157-1.157zm3.78-3.78L8.83 2.386a2.192 2.192 0 0 1-1.158.326c-.415 0-.813-.113-1.157-.326l1.157-1.158zM15.46 11.33a2.221 2.221 0 0 1-.325-1.056c.244.175.54.348.896.485l-.571.57zM9.976 4.449a1.99 1.99 0 0 0-.827.874 2.894 2.894 0 1 0 2.574 4.893c.367-.367.625-.818.753-1.31l1.715.582a3.242 3.242 0 0 0 .538 2.573l-1.16 1.16a3.227 3.227 0 0 0-3.777 0L4.625 8.054c.396-.545.61-1.2.61-1.889 0-.689-.214-1.344-.61-1.889l1.158-1.159c.546.397 1.2.611 1.89.611.688 0 1.343-.214 1.888-.61l1.099 1.098a2.004 2.004 0 0 0-.684.233zM8.96 6.432c.094.78.656 1.475 1.522 1.797a.603.603 0 0 0 .013.004l1.016.345a1.881 1.881 0 0 1-3.163.92 1.881 1.881 0 0 1 .612-3.066zm16.532-4.71h-3.02a.508.508 0 0 0-.507.508v.438H20.55a.508.508 0 0 0-.508.508v.146c-.825-.072-1.097-.228-1.855-.665a30.728 30.728 0 0 0-3.073-1.567c-.516-.204-1.87-.603-3.316.052l-2.043.731L8.03.151a.508.508 0 0 0-.718 0L1.658 5.806a.504.504 0 0 0 0 .718l9.663 9.663c.155.155.517.202.719 0l5.162-5.162c.134.011.274.017.418.017 1.327 0 2.5-.91 3.172-1.902h4.7c.28 0 .508-.227.508-.508V2.23a.508.508 0 0 0-.508-.508z" mask="url(#b)"/>
    </g>
</svg>
