<svg xmlns="http://www.w3.org/2000/svg" xmlns:xlink="http://www.w3.org/1999/xlink" width="30" height="26" viewBox="0 0 30 26">
    <defs>
        <path id="a" d="M.004.026H30V25.72H.004z"/>
    </defs>
    <g fill="none" fill-rule="evenodd">
        <mask id="b" fill="#fff">
            <use xlink:href="#a"/>
        </mask>
        <path fill="#FFF" d="M25.245 24.24a.427.427 0 1 0 0-.855.427.427 0 0 0 0 .854zM15 .904a3.367 3.367 0 0 1 3.364 3.364A3.367 3.367 0 0 1 15 7.633a3.367 3.367 0 0 1-3.364-3.364A3.367 3.367 0 0 1 15 .905zm0 7.607a4.247 4.247 0 0 0 4.243-4.243A4.247 4.247 0 0 0 15 .026a4.247 4.247 0 0 0-4.243 4.243A4.247 4.247 0 0 0 15 8.512zM4.755 24.239a.427.427 0 1 0 0-.854.427.427 0 0 0 0 .854zm21.616-8.422a.047.047 0 0 1-.047.047h-2.439v-.525c0-.855-.156-1.687-.465-2.478h2.951v2.956zm-3.364.047H19.97l-.686-3.003h3.182l.024.054c.342.768.516 1.583.516 2.424v.525zM18.85 10.96h2.1c.407 0 .776.24.941.61l.184.412h-2.991l-.234-1.022zm-2.807 4.904l-.746-3.003h3.086l.687 3.003h-3.027zm-12.367 0a.047.047 0 0 1-.047-.047v-2.956h1.674c.1.02.203.032.307.032h4.18c.104 0 .207-.011.308-.032h4.294l.745 3.003H3.676zm1.209-4.834l.176-.295a.643.643 0 0 1 .55-.311h4.18c.223 0 .434.12.549.311l.176.295c.07.117.07.261 0 .378l-.176.295a.642.642 0 0 1-.354.279H5.415a.642.642 0 0 1-.354-.28l-.176-.294a.368.368 0 0 1 0-.378zm10.446.325c.197-.251.492-.395.811-.395h1.806l.234 1.022h-3.07c.001-.225.076-.445.22-.627zM4.755 22.78a1.033 1.033 0 0 1 0 2.063 1.033 1.033 0 0 1 0-2.063zm-.32-3.825h.641v2.973a1.911 1.911 0 0 0-.642 0v-2.973zm20.81 3.825a1.033 1.033 0 0 1 0 2.063 1.033 1.033 0 0 1 0-2.063zm-.321-3.825h.642v2.973a1.912 1.912 0 0 0-.642 0v-2.973zm4.637-6.447a.44.44 0 0 0 .439-.44v-.281c0-.58-.472-1.053-1.052-1.053h-1.525c-.58 0-1.052.473-1.052 1.053v.194h-3.334l-.343-.77a1.91 1.91 0 0 0-1.743-1.131h-4.809c-.591 0-1.139.267-1.503.732-.266.34-.405.75-.406 1.169h-3.036l.073-.123a1.245 1.245 0 0 0 0-1.28l-.176-.295a1.526 1.526 0 0 0-1.304-.739H5.61c-.53 0-1.03.283-1.303.739l-.176.295a1.245 1.245 0 0 0 0 1.28l.073.123h-.575V8.479c0-.58-.472-1.052-1.052-1.052H1.052C.472 7.427 0 7.899 0 8.479v8.305c0 1.198.974 2.172 2.172 2.172h1.383v3.371c-.433.35-.71.886-.71 1.485 0 1.054.857 1.91 1.91 1.91 1.054 0 1.91-.856 1.91-1.91 0-.6-.277-1.135-.71-1.485v-.97h18.09v.97c-.433.35-.71.886-.71 1.485 0 1.054.856 1.91 1.91 1.91 1.053 0 1.91-.856 1.91-1.91 0-.6-.277-1.135-.71-1.485v-3.37h1.383A2.175 2.175 0 0 0 30 16.783v-2.703a.44.44 0 1 0-.879 0v2.703c0 .713-.58 1.293-1.293 1.293H8.566a.44.44 0 1 0 0 .88h15.479v1.52H5.955v-1.52h.536a.44.44 0 1 0 0-.88H2.172c-.713 0-1.293-.58-1.293-1.293V8.48c0-.096.078-.173.173-.173h1.525c.095 0 .173.077.173.173v7.338c0 .51.415.926.926.926H26.324c.51 0 .926-.415.926-.926v-4.03c0-.095.078-.173.173-.173h1.525c.095 0 .173.078.173.174v.282c0 .243.197.44.44.44zm-16.4-8.578h.91a.593.593 0 0 0 .591-.592v-.908h.676v.908c0 .327.265.592.592.592h.909v.676h-.91a.593.593 0 0 0-.591.592v.908h-.676V5.2a.593.593 0 0 0-.592-.592h-.908V3.93zm.622 1.555v.869c0 .348.284.631.632.631h1.17a.632.632 0 0 0 .632-.631v-.87h.869a.632.632 0 0 0 .631-.63V3.683a.632.632 0 0 0-.631-.632h-.87v-.869a.632.632 0 0 0-.63-.631h-1.171a.632.632 0 0 0-.632.631v.87h-.869a.632.632 0 0 0-.631.631v1.17c0 .348.283.632.631.632h.87z" mask="url(#b)"/>
    </g>
</svg>
